<svg width="41" height="42" viewBox="0 0 41 42" fill="none" xmlns="http://www.w3.org/2000/svg">
<path fill-rule="evenodd" clip-rule="evenodd" d="M20.25 41.0714C31.4338 41.0714 40.5 32.0119 40.5 20.8365C40.5 9.66105 31.4338 0.601562 20.25 0.601562C9.06625 0.601562 0 9.66105 0 20.8365C0 32.0119 9.06625 41.0714 20.25 41.0714ZM14.3101 11.8864C14.82 11.7619 15.2463 11.6946 16.2828 11.5751C16.6003 11.5384 16.8445 11.5334 18.4086 11.531L20.1758 11.5284L20.162 11.6681C20.1545 11.745 20.1133 12.3561 20.0704 13.0261C19.8943 15.7787 19.812 16.4157 19.523 17.262C19.4026 17.6146 19.1124 18.1923 18.9227 18.4572C18.7372 18.7162 18.3625 19.1084 18.1201 19.2974C17.435 19.8315 16.5775 20.1526 15.2628 20.3673C14.1824 20.5437 13.3345 20.6196 11.6201 20.6934C11.3241 20.7061 11.0489 20.7208 11.0085 20.726L10.935 20.7354L10.9417 18.9987L10.9484 17.262L11.0554 16.3791C11.208 15.121 11.2714 14.7757 11.4448 14.2568C11.6873 13.5315 12.1176 12.9406 12.6806 12.5595C13.0833 12.2869 13.6811 12.04 14.3101 11.8864ZM20.4758 13.7638C20.4448 13.3151 20.3516 11.6672 20.3516 11.5675C20.3515 11.5306 20.4472 11.5284 22.0476 11.5284C23.6435 11.5284 23.7576 11.531 23.9811 11.5727C24.1117 11.597 24.4152 11.6374 24.6556 11.6623C25.6397 11.7642 26.0651 11.8272 26.4614 11.9297C27.5794 12.2189 28.3878 12.8318 28.836 13.7302C29.07 14.1991 29.1614 14.5238 29.2829 15.3173C29.3751 15.9201 29.4592 16.6224 29.5104 17.2174C29.5524 17.7047 29.5807 19.7241 29.554 20.3272L29.5377 20.6963L29.344 20.6832C28.5562 20.63 28.0651 20.5985 27.413 20.5593C25.2838 20.4313 24.4157 20.3075 23.6593 20.0242C22.9816 19.7704 22.3426 19.3408 21.9193 18.8545C21.5595 18.4412 21.2409 17.8917 21.0511 17.3571C20.7768 16.5845 20.5901 15.4183 20.4758 13.7638ZM10.9363 24.2004V20.9168L11.0092 20.9169C11.0493 20.917 11.2384 20.9316 11.4295 20.9495C11.8877 20.9925 12.2294 21.0175 13.2789 21.0849C14.9515 21.1924 15.7214 21.2828 16.3383 21.444C17.9011 21.8525 18.9993 22.8783 19.5073 24.404C19.731 25.0757 19.8727 25.9439 20.0199 27.5447C20.0653 28.0382 20.0709 28.2217 20.0682 29.1162C20.0665 29.6732 20.0593 30.1347 20.0522 30.1418C20.0302 30.1637 17.0077 30.0463 15.9017 29.9807C15.2266 29.9406 14.8345 29.8792 14.1308 29.7034C13.5756 29.5648 13.2489 29.4473 12.9651 29.2841C12.2384 28.8665 11.7438 28.2292 11.4427 27.3226C11.2838 26.844 11.1982 26.3605 11.0374 25.0342L10.9363 24.2004ZM28.6907 20.9951C28.9682 20.9766 29.2456 20.9582 29.3072 20.9543C29.3689 20.9505 29.452 20.9454 29.4921 20.9432L29.565 20.9392L29.5647 22.286C29.5643 23.9392 29.5358 24.6114 29.4277 25.5105C29.342 26.2242 29.1748 27.0321 29.0242 27.461C28.6631 28.4894 27.9447 29.2051 26.9112 29.566C26.3953 29.7461 25.4958 29.9194 24.6444 30.0026C23.9157 30.0739 23.6015 30.0853 22.0384 30.0973L20.4412 30.1095V29.2729C20.4412 28.5399 20.4496 28.3342 20.5087 27.6122C20.6078 26.4032 20.6745 25.8459 20.7912 25.2534C21.1507 23.4275 22.0569 22.2523 23.5771 21.6404C24.3214 21.3408 25.1976 21.2128 27.4578 21.0737C27.8585 21.049 28.4133 21.0137 28.6907 20.9951Z" fill="#F5F5F5"/>
</svg>
