<svg width="36" height="36" viewBox="0 0 36 36" fill="none" xmlns="http://www.w3.org/2000/svg">
<g clip-path="url(#clip0_2013_1797)">
<path d="M18 36C27.9411 36 36 27.9411 36 18C36 8.05887 27.9411 0 18 0C8.05887 0 0 8.05887 0 18C0 27.9411 8.05887 36 18 36Z" fill="#1A1A1A"/>
<path fill-rule="evenodd" clip-rule="evenodd" d="M23.0814 20.1614C22.8648 20.0162 22.6006 20.0317 22.4089 20.1531C21.4306 20.7601 20.9604 22.8776 19.469 22.1515C17.2183 21.0553 14.8509 18.7724 13.8464 16.5955C13.1513 15.0898 15.2247 14.5911 15.8269 13.6092C15.9471 13.4175 15.9614 13.1533 15.815 12.9379C15.6686 12.7332 13.206 9.67542 12.8073 9.27907C12.5288 8.99104 12.1693 8.49828 11.5694 8.74823C11.3826 8.81964 10.5256 9.66947 10.3923 9.77659C7.5357 12.0726 8.53193 15.5243 10.8184 18.895C12.3895 21.21 14.8104 23.6179 16.9672 25.0569C20.4403 27.3743 23.9479 28.4884 26.2701 25.5663C26.3772 25.4318 27.2211 24.5701 27.2925 24.3832C27.5401 23.7821 27.0449 23.4263 26.7545 23.1489C26.3558 22.7526 23.2838 20.3066 23.079 20.1614H23.0814Z" fill="white"/>
</g>
<defs>
<clipPath id="clip0_2013_1797">
<rect width="36" height="36" fill="white"/>
</clipPath>
</defs>
</svg>
