<svg width="35" height="36" viewBox="0 0 35 36" fill="none" xmlns="http://www.w3.org/2000/svg">
<g clip-path="url(#clip0_2013_1793)">
<path fill-rule="evenodd" clip-rule="evenodd" d="M17.5 36C27.165 36 35 27.9411 35 18C35 8.05889 27.165 0 17.5 0C7.83503 0 0 8.05889 0 18C0 27.9411 7.83503 36 17.5 36ZM9.51884 11.5908C10.0111 11.0845 10.6788 10.8 11.375 10.8H23.625C24.3212 10.8 24.9889 11.0845 25.4812 11.5908C25.9734 12.0972 26.25 12.7839 26.25 13.5V22.5C26.25 23.2161 25.9734 23.9028 25.4812 24.4092C24.9889 24.9155 24.3212 25.2 23.625 25.2H11.375C10.6788 25.2 10.0111 24.9155 9.51884 24.4092C9.02657 23.9028 8.75 23.2161 8.75 22.5V13.5C8.75 12.7839 9.02657 12.0972 9.51884 11.5908ZM18.1213 17.892L23.2662 12.6H11.7338L16.8787 17.892C16.9601 17.9763 17.0569 18.0433 17.1635 18.089C17.2701 18.1347 17.3845 18.1582 17.5 18.1582C17.6155 18.1582 17.7299 18.1347 17.8365 18.089C17.9431 18.0433 18.0399 17.9763 18.1213 17.892ZM24.2437 23.1364C24.4078 22.9676 24.5 22.7387 24.5 22.5V13.869L19.355 19.161C18.8628 19.6666 18.1956 19.9506 17.5 19.9506C16.8044 19.9506 16.1372 19.6666 15.645 19.161L10.5 13.869V22.5C10.5 22.7387 10.5922 22.9676 10.7563 23.1364C10.9204 23.3052 11.143 23.4 11.375 23.4H23.625C23.857 23.4 24.0796 23.3052 24.2437 23.1364Z" fill="#1A1A1A"/>
</g>
<defs>
<clipPath id="clip0_2013_1793">
<rect width="35" height="36" fill="white"/>
</clipPath>
</defs>
</svg>
