<svg width="41" height="42" viewBox="0 0 41 42" fill="none" xmlns="http://www.w3.org/2000/svg">
<path fill-rule="evenodd" clip-rule="evenodd" d="M20.75 41.0714C31.9337 41.0714 41 32.0118 41 20.8365C41 9.66113 31.9337 0.601562 20.75 0.601562C9.56633 0.601562 0.5 9.66113 0.5 20.8365C0.5 32.0118 9.56633 41.0714 20.75 41.0714ZM29.6507 13.5292C29.807 11.7567 27.9335 12.4867 27.9335 12.4867C26.5504 13.059 25.124 13.6401 23.6822 14.2277C19.211 16.0501 14.5924 17.9328 10.6578 19.7859C8.52426 20.5677 9.77328 21.3496 9.77328 21.3496L13.1554 22.3925C14.7167 22.862 15.549 22.3403 15.549 22.3403L22.8341 17.3876C25.4359 15.615 24.8113 17.0748 24.1868 17.7005L18.7234 22.9138C17.8907 23.6439 18.307 24.2695 18.6711 24.5823C19.7039 25.4925 22.2432 27.1578 23.3517 27.8847C23.6401 28.0737 23.8316 28.1995 23.875 28.2319C24.135 28.4403 25.5399 29.3788 26.4767 29.1704C27.4135 28.9616 27.5175 27.7625 27.5175 27.7625L28.7662 19.577C28.9533 18.1561 29.1683 16.7903 29.34 15.6992C29.5021 14.6689 29.6256 13.8842 29.6507 13.5292Z" fill="#F5F5F5"/>
</svg>
