<svg width="35" height="36" viewBox="0 0 35 36" fill="none" xmlns="http://www.w3.org/2000/svg">
<g clip-path="url(#clip0_2013_1795)">
<path fill-rule="evenodd" clip-rule="evenodd" d="M17.5 36C27.165 36 35 27.9411 35 18C35 8.05889 27.165 0 17.5 0C7.83503 0 0 8.05889 0 18C0 27.9411 7.83503 36 17.5 36ZM25.192 11.5C25.3269 9.92315 23.7081 10.5724 23.7081 10.5724C22.5127 11.0814 21.28 11.5986 20.0339 12.1214C16.1703 13.7424 12.1787 15.4171 8.77839 17.0653C6.93466 17.761 8.01392 18.4567 8.01392 18.4567L10.9369 19.3842C12.2859 19.8016 13.0055 19.3378 13.0055 19.3378L19.3011 14.9319C21.5495 13.3551 21.0099 14.6537 20.4703 15.2102L15.7485 19.848C15.029 20.4972 15.3888 21.0538 15.7036 21.3321C16.5957 22.1417 18.7903 23.623 19.7484 24.2697C19.9977 24.438 20.1633 24.5498 20.2005 24.5785C20.4253 24.764 21.6395 25.5988 22.4489 25.4133C23.2584 25.2278 23.3483 24.1611 23.3483 24.1611L24.4275 16.8798C24.5894 15.6157 24.7751 14.4007 24.9234 13.4303C25.0635 12.5137 25.1702 11.8154 25.192 11.5Z" fill="#1A1A1A"/>
</g>
<defs>
<clipPath id="clip0_2013_1795">
<rect width="35" height="36" fill="white"/>
</clipPath>
</defs>
</svg>
