<svg width="38" height="38" viewBox="0 0 38 38" fill="none" xmlns="http://www.w3.org/2000/svg">
<path fill-rule="evenodd" clip-rule="evenodd" d="M18 38C27.9411 38 36 29.9411 36 20C36 10.0589 27.9411 2 18 2C8.05889 2 0 10.0589 0 20C0 29.9411 8.05889 38 18 38ZM25.1145 12.4374C23.2622 10.5828 20.7986 9.56097 18.174 9.56C12.7662 9.56 8.36446 13.9611 8.36251 19.3708C8.36186 21.1001 8.81363 22.7881 9.67205 24.2757L8.28 29.36L13.4812 27.9958C14.9142 28.7776 16.5279 29.1894 18.1697 29.1901H18.1736C23.581 29.1901 27.9828 24.7884 27.9851 19.379C27.9867 16.7569 26.9672 14.2921 25.1145 12.4374ZM18.1743 27.5329H18.171C16.7076 27.5322 15.2723 27.139 14.0204 26.3962L13.7225 26.2194L10.6359 27.029L11.4596 24.0197L11.2658 23.711C10.4496 22.4125 10.0184 20.9121 10.0191 19.3711C10.0207 14.8748 13.6792 11.2169 18.1772 11.2169C20.3553 11.2175 22.4028 12.0671 23.9425 13.6085C25.4822 15.1498 26.3295 17.1986 26.3288 19.3777C26.3272 23.8746 22.6689 27.5329 18.1743 27.5329ZM22.6471 21.4252C22.4019 21.3024 21.1968 20.7095 20.9718 20.6277C20.7473 20.5458 20.5836 20.5049 20.4202 20.7504C20.2568 20.996 19.787 21.5479 19.644 21.7116C19.5009 21.8753 19.3578 21.8956 19.1129 21.7729C19.0729 21.7528 19.0182 21.7291 18.9507 21.6998C18.6055 21.5501 17.9246 21.2548 17.1414 20.5559C16.4127 19.9058 15.9206 19.103 15.7775 18.8578C15.6345 18.6123 15.7621 18.4797 15.8849 18.3575C15.9585 18.2842 16.043 18.1812 16.1275 18.0783C16.1697 18.027 16.2118 17.9756 16.2526 17.928C16.3564 17.8067 16.4016 17.7146 16.4629 17.5898C16.4739 17.5674 16.4853 17.5439 16.4978 17.5191C16.5796 17.3554 16.5387 17.2123 16.4775 17.0896C16.4366 17.0076 16.2042 16.442 15.9935 15.9292C15.8888 15.6742 15.7894 15.4323 15.7216 15.2693C15.5458 14.8473 15.3678 14.8484 15.2249 14.8493C15.2059 14.8494 15.1875 14.8495 15.1699 14.8486C15.0272 14.8414 14.8635 14.8401 14.7001 14.8401C14.5367 14.8401 14.2712 14.9013 14.0463 15.1469C14.0318 15.1627 14.0156 15.18 13.998 15.1988C13.7426 15.4715 13.1882 16.0633 13.1882 17.1921C13.1882 18.3958 14.0623 19.5589 14.1885 19.7268L14.1894 19.728C14.1974 19.7386 14.2116 19.7591 14.232 19.7884C14.5246 20.2082 16.0781 22.4369 18.3773 23.4298C18.9624 23.6825 19.4187 23.8331 19.7749 23.946C20.3622 24.1327 20.8966 24.1064 21.3192 24.0433C21.7903 23.9729 22.7695 23.4504 22.9738 22.8778C23.1781 22.3052 23.1781 21.8141 23.1169 21.7119C23.0675 21.6293 22.9516 21.5732 22.7799 21.4902C22.7388 21.4703 22.6944 21.4489 22.6471 21.4252Z" fill="#1A1A1A"/>
</svg>
