<svg width="41" height="42" viewBox="0 0 41 42" fill="none" xmlns="http://www.w3.org/2000/svg">
<path fill-rule="evenodd" clip-rule="evenodd" d="M20.5 41.0714C31.6837 41.0714 40.75 32.0118 40.75 20.8365C40.75 9.66113 31.6837 0.601562 20.5 0.601562C9.31633 0.601562 0.25 9.66113 0.25 20.8365C0.25 32.0118 9.31633 41.0714 20.5 41.0714ZM27.7495 13.8052C29.3039 13.9453 30.1795 14.8959 30.3715 16.4107C30.5059 17.4678 30.625 18.9813 30.625 20.6094C30.625 23.4682 30.3715 25.121 30.3715 25.121C30.1333 26.6297 29.4035 27.4488 27.8686 27.622C26.1534 27.8163 22.2958 27.9053 20.5818 27.9053C18.8079 27.9053 15.2208 27.8309 13.4295 27.6819C11.8905 27.5536 10.8399 26.6945 10.6285 25.1655C10.4746 24.0518 10.375 22.7284 10.375 20.624C10.375 18.2816 10.4596 17.2901 10.6585 16.2318C10.9416 14.7215 11.6629 13.9898 13.3104 13.8198C15.039 13.6413 16.6728 13.5519 20.3287 13.5519C22.1159 13.5519 25.9695 13.6442 27.7495 13.8052ZM18.347 17.7555V23.5726L23.8898 20.6341L18.347 17.7555Z" fill="#F5F5F5"/>
</svg>
