<svg width="15" height="18" viewBox="0 0 15 18" fill="none" xmlns="http://www.w3.org/2000/svg">
<path d="M3.0363 18.0002C3.08457 18.0002 3.13513 18.0002 3.1811 17.9956C3.36038 17.9818 3.53965 17.9864 3.73272 17.991C3.82696 17.991 3.92119 17.9956 4.01313 17.9956H5.78521C7.65841 18.0002 9.59598 18.0025 11.4991 17.9956H11.6071C11.9404 17.9956 12.3104 17.9956 12.6529 17.883C14.1354 17.398 15.0777 16.0558 14.995 14.5388C14.9789 14.2216 14.9628 13.9045 14.949 13.5873C14.9375 13.3344 14.926 13.0839 14.9145 12.8311L14.8387 11.3164C14.7697 9.94658 14.7008 8.52845 14.6203 7.13561C14.5353 5.61636 13.6067 4.47175 12.1403 4.06953C12.0829 4.05344 12.0254 4.03275 11.9542 4.00517C11.8025 3.36162 11.6071 2.68818 11.1497 2.09289C10.6372 1.43095 10.0465 0.948279 9.33856 0.619606C8.67431 0.309319 7.94342 0.182906 7.10909 0.233472C6.24719 0.284037 5.44734 0.61271 4.66358 1.23328C3.78558 1.9297 3.23396 2.85596 3.02251 3.98449L2.93057 4.01437C2.7513 4.07183 2.5973 4.12239 2.44101 4.18445C1.39523 4.60966 0.72869 5.37733 0.462074 6.46448C0.377033 6.81154 0.349452 7.16779 0.333363 7.43671C0.229934 9.29613 0.142594 10.997 0.0644481 12.6357C0.0276734 13.4356 0.00698766 14.1619 9.24159e-05 14.8583C-0.00680283 15.665 0.372436 16.4902 1.04127 17.1176C1.63886 17.6784 2.36516 18.0002 3.0363 18.0002ZM4.84975 5.54741C5.69327 5.54281 6.53449 5.54281 7.37801 5.54281H8.89037C9.29259 5.53822 9.7086 5.53822 10.1177 5.54281C10.2143 5.54281 10.3131 5.5543 10.4211 5.5681V5.57729C10.4395 5.76116 10.4579 5.94963 10.497 6.1404C10.5452 6.37944 10.6969 6.5748 10.9084 6.67363C11.1152 6.77017 11.3497 6.76097 11.5542 6.64835C11.7036 6.56791 11.83 6.41851 11.9381 6.19326C11.9978 6.06915 12.0093 5.94503 12.0185 5.8439C12.0208 5.81403 12.0231 5.78644 12.0277 5.75886C12.03 5.74048 12.0323 5.72209 12.0369 5.7037C12.3954 5.81632 12.6621 6.06915 12.8689 6.48286C12.9586 6.65984 12.9999 6.88049 13.0298 7.07356C13.0735 7.34707 13.0942 7.62748 13.1103 7.96304C13.2114 10.004 13.3102 12.0427 13.4068 14.0837C13.4159 14.2768 13.4274 14.4928 13.4228 14.702C13.4022 15.6466 12.7356 16.3385 11.8025 16.3821C11.5129 16.3959 11.2164 16.3959 10.9314 16.3936H10.6785C8.35024 16.3936 6.02194 16.3959 3.69365 16.3982H3.63159C3.44772 16.3982 3.25695 16.3982 3.07767 16.3844C2.28931 16.3201 1.68943 15.7593 1.5837 14.9939C1.54463 14.7181 1.55382 14.4262 1.56761 14.1274C1.62277 12.9414 1.68483 11.7347 1.74459 10.5671L1.78826 9.71674C1.79975 9.4754 1.81124 9.23407 1.82274 8.99273V8.94907C1.85262 8.36297 1.8802 7.75619 1.92617 7.1609C1.97903 6.45299 2.31919 5.97951 2.96735 5.71519C2.97194 5.75657 2.97424 5.80023 2.97654 5.8485C2.98114 5.93354 2.98573 6.02778 3.00872 6.12891C3.08916 6.49206 3.39945 6.73339 3.77869 6.73339H3.78329C4.17631 6.7288 4.45212 6.47137 4.50499 6.05996C4.52567 5.90366 4.53257 5.74737 4.54176 5.59797V5.55201C4.57854 5.54051 4.6337 5.54051 4.73253 5.54511C4.7716 5.54511 4.81068 5.54741 4.84975 5.54741ZM4.70495 3.91783C4.76241 3.44666 5.03362 3.06282 5.26117 2.81689C5.799 2.23539 6.65171 1.81938 7.33664 1.80559C8.22842 1.7826 8.94093 2.04692 9.52013 2.60314C9.95913 3.02375 10.212 3.44436 10.3016 3.91324C9.15468 3.9661 5.77601 3.9684 4.70495 3.91783ZM11.9059 4.09481L11.8921 4.12929V4.09711L11.9059 4.09481Z" fill="#F5F5F5"/>
</svg>
