<svg width="17" height="15" viewBox="0 0 17 15" fill="none" xmlns="http://www.w3.org/2000/svg">
<path d="M8.4573 1.51147C8.81125 1.25865 9.1306 1.03511 9.44462 0.806241C11.9302 -1.01938 15.4085 0.48423 16.4464 2.76492C17.3885 4.83271 17.0798 6.75413 15.8875 8.60104C14.7831 10.3122 13.3034 11.6588 11.6907 12.8723C10.6635 13.6441 9.62027 14.3946 8.39077 14.9987C7.45933 14.36 6.4933 13.7319 5.56452 13.0507C3.90124 11.8318 2.4003 10.4426 1.21604 8.74209C0.356456 7.50461 -0.133214 6.14471 0.0317832 4.61981C0.430971 0.910029 3.91189 -0.604222 6.43475 0.22875C6.97765 0.407053 7.44869 0.800918 7.94634 1.10962C8.12731 1.2214 8.28166 1.37309 8.4573 1.51147ZM8.51319 3.68305C8.3615 3.54733 8.24706 3.45152 8.14327 3.3504C7.78401 2.99911 7.44603 2.6292 7.06813 2.2992C6.63967 1.92663 6.16863 1.60462 5.58847 1.50615C4.01301 1.24002 1.96917 2.25396 1.59128 4.26587C1.3358 5.62044 1.71369 6.81268 2.46683 7.91178C3.9385 10.0567 5.95573 11.6003 8.11932 12.9788C8.44666 13.189 8.69681 13.1332 9.01084 12.9362C10.6448 11.9116 12.1378 10.7088 13.4445 9.29563C14.0033 8.69152 14.4824 8.00226 14.9135 7.29969C15.6453 6.10745 15.6746 4.85134 15.1823 3.53668C14.658 2.14219 12.3667 0.835515 10.6315 1.82816C10.2031 2.073 9.83583 2.42694 9.46059 2.75694C9.13592 3.04169 8.84318 3.35838 8.51585 3.68571L8.51319 3.68305Z" fill="#F5F5F5"/>
</svg>
