<svg width="17" height="18" viewBox="0 0 17 18" fill="none" xmlns="http://www.w3.org/2000/svg">
<path d="M11.6603 9.87999C12.6018 10.4933 13.5117 10.9828 14.3035 11.6248C15.9332 12.9407 16.8114 14.697 16.9899 16.7874C17.01 17.0149 17.0014 17.2538 16.9524 17.4755C16.8747 17.8355 16.6069 18.0169 16.2672 17.9967C15.9044 17.9737 15.7604 17.8527 15.6712 17.464C15.6337 17.2999 15.6164 17.1329 15.5963 16.9659C15.2796 14.1356 13.6787 12.3303 11.0643 11.383C9.02864 10.6488 7.0045 10.7438 5.0725 11.7343C2.99653 12.7967 1.67782 14.4408 1.41005 16.822C1.38413 17.0523 1.3611 17.2826 1.30351 17.5072C1.21138 17.8614 1.01846 17.9881 0.661431 17.9737C0.255452 17.9564 0.0164709 17.8095 0.00495371 17.441C-0.012322 16.9429 0.0135916 16.4304 0.114367 15.9409C0.603845 13.5137 2.05789 11.8034 4.15976 10.5854C4.35844 10.4702 4.56574 10.3608 4.77017 10.2572C4.95445 10.165 5.1416 10.0844 5.42089 9.95485C5.19343 9.6986 5.0034 9.48553 4.81624 9.27246C3.06276 7.2656 3.08867 4.40359 4.90838 2.51765C6.97571 0.372585 10.4222 0.401378 12.3859 2.87181C13.8716 4.74334 13.8946 7.57368 12.0433 9.4193C11.8993 9.56327 11.7812 9.73315 11.6632 9.87711L11.6603 9.87999ZM12.0375 6.02175C12.121 3.90259 10.2379 2.33914 8.49021 2.37081C6.59852 2.40536 4.91414 4.02928 4.91126 5.9037C4.91126 7.47291 6.14647 9.49992 8.5334 9.51432C10.4309 9.52584 12.026 7.92208 12.0375 6.02175Z" fill="#F5F5F5"/>
</svg>
