<svg width="17" height="18" viewBox="0 0 17 18" fill="none" xmlns="http://www.w3.org/2000/svg">
<g clip-path="url(#clip0_0_154)">
<path d="M12.3723 14.5855C11.6162 14.9577 10.934 15.3593 10.2074 15.6399C5.95449 17.2791 1.18468 14.68 0.198234 10.2794C-0.764587 5.98807 1.86693 2.00093 6.20258 1.09127C9.62266 0.37358 13.5803 2.42031 14.7498 6.21548C15.4232 8.40103 15.2224 10.498 14.0292 12.4827C13.5655 13.2535 13.5832 13.2624 14.2182 13.9033C14.9329 14.6239 15.6506 15.3416 16.3624 16.0652C16.5396 16.2454 16.7168 16.4344 16.8468 16.647C17.0978 17.0576 17.0358 17.3765 16.6843 17.7014C16.3004 18.0529 15.9401 18.1208 15.5709 17.7723C14.6287 16.8863 13.725 15.9559 12.8065 15.0433C12.6499 14.8897 12.5052 14.7273 12.3723 14.5855ZM7.635 14.305C11.0108 14.2754 13.3499 11.3545 13.3558 8.56938C13.3588 5.41215 10.7243 2.77177 7.60841 2.77473C4.46595 2.77768 1.80491 5.4151 1.81081 8.52212C1.81967 11.7502 4.38917 14.305 7.635 14.305Z" fill="#F5F5F5"/>
</g>
<defs>
<clipPath id="clip0_0_154">
<rect width="17" height="17.0502" fill="white" transform="translate(0 0.949219)"/>
</clipPath>
</defs>
</svg>
