<svg width="250" height="25" viewBox="0 0 250 25" fill="none" xmlns="http://www.w3.org/2000/svg">
<path d="M44.3717 0H38.4126V21.1455H44.3717V0Z" fill="black"/>
<path d="M31.5674 1.18323H25.6084V22.3283H31.5674V1.18323Z" fill="black"/>
<path d="M18.7632 2.5042H12.8042V23.6533H18.7632V2.5042Z" fill="black"/>
<path d="M5.95901 3.83984H0L2.27065e-05 24.9915H5.95903L5.95901 3.83984Z" fill="black"/>
<path d="M201.759 11.2729L192.164 3.80789H186.555V21.0919H192.411V10.0644L201.171 16.5978H202.253L210.863 10.0644V21.0919H216.719V3.80789H211.11L201.759 11.2729Z" fill="black"/>
<path d="M244.621 3.80789L230.105 15.0419V3.80789H224.248V21.0919H229.614L244.13 9.85793V21.0919H249.986V3.80789H244.621Z" fill="black"/>
<path d="M155.01 10.1324C155.01 12.8842 157.16 15.0519 160.461 15.9608L154.271 21.0919H161.44L167.071 16.4241H173.164V21.0919H179.02V3.80789H164.11C158.551 3.80789 155.01 6.4691 155.01 10.1324ZM173.167 7.61465V12.7256H165.196C162.537 12.7256 161.11 11.6883 161.11 10.1676C161.11 8.64691 162.587 7.60962 165.196 7.60962L173.167 7.61465Z" fill="black"/>
<path d="M127.795 7.26469C127.436 13.209 125.644 17.046 122.135 17.046H121.257V21.1951L122.193 21.2304C129.228 21.5048 133.117 17.1844 133.755 7.74809H143.01V21.0919H148.855V3.80789H127.992L127.795 7.26469Z" fill="black"/>
<path d="M105.749 3.56641C97.8278 3.56641 92.1289 7.40338 92.1289 12.4489C92.1289 17.6681 98.3295 21.3691 105.749 21.3691C113.476 21.3691 119.48 17.4616 119.48 12.4489C119.48 7.43611 113.476 3.56641 105.749 3.56641ZM105.749 17.2199C101.272 17.2199 98.222 15.1806 98.222 12.4489C98.222 9.64917 101.276 7.66522 105.749 7.66522C110.222 7.66522 113.376 9.73981 113.376 12.4489C113.376 15.1579 110.179 17.2199 105.749 17.2199Z" fill="black"/>
<path d="M85.9177 3.84049H65.2477L65.0506 7.2973C64.7567 12.2773 62.9001 17.0131 59.3912 17.0811L57.7676 17.1163V24.9985L63.6743 24.9902V21.0943H84.1937V24.9902H90.1506V17.0811H85.9177V3.84049ZM80.0611 17.0811H67.5631C69.6778 14.8353 70.8104 11.5849 71.0075 7.78322H80.0611V17.0811Z" fill="black"/>
</svg>
