<svg width="24" height="26" viewBox="0 0 24 26" fill="none" xmlns="http://www.w3.org/2000/svg">
<g clip-path="url(#clip0_0_139)">
<path d="M19.7376 3.86935H9.66016V0.855469H20.4239V3.23537C20.4239 3.58551 20.1167 3.86935 19.7376 3.86935ZM13.4174 6.98605C12.0865 6.98605 10.8179 7.23098 9.66016 7.67322V9.2016C10.3774 8.97968 11.1454 8.859 11.9438 8.859C15.9116 8.859 19.1287 11.8304 19.1287 15.4957C19.1287 19.1611 15.9121 22.1325 11.9438 22.1325C11.1454 22.1325 10.3778 22.0122 9.66016 21.7899V24.4651C10.8179 24.9078 12.0865 25.1523 13.4174 25.1523C18.8481 25.1523 23.2508 21.0852 23.2508 16.0686C23.2508 11.0519 18.8481 6.98485 13.4174 6.98485V6.98605Z" fill="#F5F5F5"/>
<path d="M5.07785 23.4512C5.07785 23.7795 5.00136 24.0721 4.84751 24.3297C4.69409 24.587 4.48352 24.7887 4.21579 24.9347C3.94806 25.0808 3.64122 25.1535 3.29442 25.1535C2.94761 25.1535 2.64078 25.0804 2.37305 24.9347C2.10531 24.7887 1.89603 24.5874 1.74476 24.3297C1.59349 24.0725 1.51786 23.7795 1.51786 23.4512C1.51786 23.1594 1.58017 22.899 1.70522 22.67C1.83028 22.4409 2.0155 22.2639 2.26131 22.138L2.57073 22.5818C2.39969 22.6874 2.27377 22.8161 2.19255 22.9677C2.11133 23.1197 2.07094 23.2829 2.07094 23.4572C2.07094 23.668 2.12122 23.8565 2.22221 24.0225C2.32319 24.1888 2.46458 24.3202 2.64679 24.4175C2.829 24.5147 3.04473 24.5636 3.29485 24.5636C3.54496 24.5636 3.76198 24.5147 3.94634 24.4175C4.1307 24.3202 4.27337 24.1884 4.37393 24.0225C4.47492 23.8565 4.5252 23.668 4.5252 23.4572C4.5252 23.2829 4.48481 23.1197 4.40358 22.9677C4.32236 22.8157 4.19645 22.687 4.02541 22.5818L4.32795 22.138C4.56947 22.2639 4.75469 22.4409 4.88404 22.67C5.01339 22.899 5.07828 23.1594 5.07828 23.4512H5.07785ZM5.07785 20.4604C5.07785 20.7847 5.00136 21.0725 4.84751 21.3234C4.69409 21.5747 4.48223 21.7732 4.21235 21.9193C3.94247 22.0654 3.63649 22.138 3.29442 22.138C2.95234 22.138 2.64078 22.065 2.37305 21.9193C2.10531 21.7732 1.89603 21.5747 1.74476 21.3234C1.59349 21.0721 1.51786 20.7843 1.51786 20.4604C1.51786 20.1364 1.59349 19.8534 1.74476 19.6001C1.89603 19.3468 2.10446 19.1484 2.37004 19.0042C2.63562 18.8605 2.94375 18.7883 3.29442 18.7883C3.64509 18.7883 3.94806 18.8601 4.21579 19.0042C4.48352 19.148 4.69409 19.3468 4.84751 19.6001C5.00093 19.8534 5.07785 20.14 5.07785 20.4604ZM4.5252 20.4604C4.5252 20.2535 4.47492 20.0682 4.37393 19.9042C4.27294 19.7402 4.12941 19.6116 3.9429 19.5183C3.75639 19.425 3.54066 19.3786 3.29485 19.3786C3.04903 19.3786 2.82857 19.425 2.64679 19.5183C2.46501 19.6116 2.32319 19.7402 2.22221 19.9042C2.12122 20.0682 2.07094 20.2535 2.07094 20.4604C2.07094 20.6672 2.12122 20.8514 2.22221 21.0134C2.32319 21.1753 2.46458 21.3051 2.64679 21.4024C2.829 21.4997 3.04473 21.5485 3.29485 21.5485C3.54496 21.5485 3.75682 21.4997 3.9429 21.4024C4.12941 21.3051 4.27294 21.1753 4.37393 21.0134C4.47492 20.8514 4.5252 20.6668 4.5252 20.4604ZM5.07785 16.9789C5.07785 17.2909 5.00351 17.5696 4.85396 17.8145C4.70484 18.0598 4.49641 18.2532 4.22868 18.3949C3.96095 18.5366 3.64981 18.6077 3.29442 18.6077C2.93902 18.6077 2.62874 18.537 2.36316 18.3949C2.09758 18.2532 1.89044 18.0594 1.74132 17.8145C1.5922 17.5692 1.51743 17.2909 1.51743 16.9789C1.51743 16.7073 1.58318 16.462 1.71468 16.2432C1.84618 16.0245 2.04386 15.849 2.30686 15.7172C2.56987 15.5854 2.89905 15.5195 3.29399 15.5195C3.68892 15.5195 4.01767 15.5835 4.28111 15.7109C4.54411 15.8387 4.74265 16.0118 4.87673 16.2305C5.01081 16.4493 5.07742 16.6986 5.07742 16.9781L5.07785 16.9789ZM4.5252 16.9304C4.5252 16.728 4.47492 16.5446 4.37393 16.3802C4.27294 16.2162 4.12941 16.0864 3.9429 15.9912C3.75639 15.8959 3.54066 15.8482 3.29485 15.8482C3.04903 15.8482 2.82857 15.8959 2.64679 15.9912C2.46501 16.0864 2.32319 16.2162 2.22221 16.3802C2.12122 16.5442 2.07094 16.7276 2.07094 16.9304C2.07094 17.1333 2.12122 17.3214 2.22221 17.4834C2.32319 17.6454 2.46458 17.7752 2.64679 17.8725C2.829 17.9697 3.04473 18.0185 3.29485 18.0185C3.54496 18.0185 3.75682 17.9697 3.9429 17.8725C4.12941 17.7752 4.27294 17.6454 4.37393 17.4834C4.47492 17.3214 4.5252 17.1368 4.5252 16.9304ZM5.03832 15.83H4.09718L3.28797 15.7935L2.47876 15.8542H0.155567V15.2706H5.03832V15.83ZM5.07785 13.1039C5.07785 13.4485 5.00136 13.7514 4.84751 14.0126C4.69409 14.2738 4.48352 14.4767 4.21579 14.6204C3.94806 14.7641 3.64122 14.8363 3.29442 14.8363C2.94761 14.8363 2.64078 14.7665 2.37305 14.6267C2.10531 14.487 1.89603 14.2945 1.74476 14.0491C1.59349 13.8042 1.51786 13.5275 1.51786 13.2194C1.51786 12.9114 1.59263 12.6319 1.74175 12.3929C1.89087 12.1539 2.10059 11.9666 2.37004 11.8308C2.63992 11.695 2.95449 11.6272 3.31418 11.6272C3.3404 11.6272 3.37134 11.6283 3.40615 11.6303C3.44139 11.6323 3.47405 11.6355 3.50499 11.6395V14.381H3.05075V11.9435L3.20847 12.1805C2.98457 12.1766 2.78517 12.219 2.60983 12.3084C2.4345 12.3977 2.29741 12.5204 2.19857 12.676C2.09973 12.832 2.05031 13.0134 2.05031 13.2198C2.05031 13.4263 2.09973 13.6029 2.19857 13.7609C2.29741 13.9189 2.43536 14.0428 2.61327 14.1317C2.79076 14.221 2.99403 14.2655 3.22179 14.2655H3.32708C3.55957 14.2655 3.76713 14.2159 3.94892 14.1166C4.13113 14.0174 4.27251 13.8784 4.3735 13.7002C4.47449 13.5219 4.52477 13.3171 4.52477 13.0861C4.52477 12.8955 4.48953 12.7224 4.41949 12.5664C4.34944 12.4104 4.24415 12.2738 4.10362 12.1559L4.51145 11.8336C4.69581 11.9797 4.83634 12.1607 4.9326 12.3774C5.02929 12.5942 5.07742 12.8364 5.07742 13.1039H5.07785ZM0.83886 8.55372C0.83886 8.66845 0.798464 8.76333 0.718102 8.83915C0.63774 8.91498 0.539329 8.95269 0.422868 8.95269C0.306407 8.95269 0.20155 8.91498 0.120758 8.83915C0.0403959 8.76333 0 8.66845 0 8.55372C0 8.439 0.0391067 8.34412 0.11732 8.26829C0.195533 8.19247 0.293085 8.15476 0.409116 8.15476C0.525147 8.15476 0.631723 8.19168 0.714664 8.26512C0.797605 8.33896 0.83886 8.43503 0.83886 8.55372ZM5.08 10.9297H1.20801C0.859058 10.9297 0.580584 10.8368 0.372588 10.6502C0.164592 10.464 0.0605939 10.1988 0.0605939 9.85503C0.0605939 9.72799 0.0773539 9.60652 0.110874 9.4898C0.144394 9.37309 0.197252 9.27385 0.26859 9.19207L0.758498 9.36992C0.70478 9.43145 0.663524 9.50092 0.634302 9.57873C0.605079 9.65654 0.590468 9.73831 0.590468 9.82446C0.590468 9.99635 0.642897 10.1274 0.748184 10.2175C0.853471 10.3076 1.00904 10.3524 1.21446 10.3524H1.69104L1.98628 10.3401H5.08V10.9297ZM5.08 8.84828H1.52344V8.25877H5.08V8.84828ZM2.05332 11.4819H1.52301V9.40684H2.05332V11.4819ZM5.08 6.2822L1.52344 7.70657V7.09244L4.7448 5.82765V6.12221L1.52344 4.83282V4.25561L5.08 5.67998V6.2818V6.2822ZM5.1204 2.34693C5.1204 2.69468 5.04218 3.00075 4.88533 3.26475C4.7289 3.52874 4.51403 3.73358 4.24114 3.87848C3.96825 4.02377 3.65497 4.09642 3.30172 4.09642C2.94847 4.09642 2.63519 4.02576 2.3623 3.88443C2.08941 3.74311 1.87583 3.54898 1.72155 3.30127C1.56728 3.05355 1.48992 2.77447 1.48992 2.46324C1.48992 2.15201 1.56599 1.86976 1.71812 1.62839C1.87025 1.38703 2.08383 1.19767 2.35886 1.06071C2.6339 0.924146 2.95492 0.855469 3.32192 0.855469C3.34856 0.855469 3.37994 0.85666 3.41603 0.858645C3.4517 0.86063 3.48565 0.863805 3.51659 0.867775V3.63672H3.05333V1.17464L3.21448 1.41402C2.98629 1.41005 2.78259 1.45293 2.60382 1.54304C2.42504 1.63315 2.28495 1.75701 2.18439 1.91461C2.08383 2.07222 2.03355 2.25522 2.03355 2.46404C2.03355 2.67285 2.08383 2.8507 2.18439 3.01028C2.28495 3.16987 2.4259 3.29492 2.60726 3.38463C2.78861 3.47475 2.99531 3.51961 3.22781 3.51961H3.33524C3.57246 3.51961 3.78389 3.46959 3.96954 3.36915C4.15519 3.26872 4.29959 3.12858 4.4023 2.94875C4.50543 2.76852 4.55657 2.56209 4.55657 2.32867C4.55657 2.13653 4.52091 1.96146 4.44914 1.80386C4.3778 1.64625 4.27036 1.50811 4.12683 1.38941L4.54282 1.06388C4.73062 1.21116 4.87415 1.39457 4.97214 1.61331C5.07055 1.83244 5.11997 2.07698 5.11997 2.34693H5.1204Z" fill="#F5F5F5"/>
<path d="M7.50234 25.1516H7.27415C7.24149 25.1516 7.21484 25.1269 7.21484 25.0968V0.906346C7.21484 0.876175 7.24149 0.851562 7.27415 0.851562H7.50234C7.535 0.851562 7.56165 0.876175 7.56165 0.906346V25.0968C7.56165 25.1269 7.535 25.1516 7.50234 25.1516Z" fill="#F5F5F5"/>
</g>
<defs>
<clipPath id="clip0_0_139">
<rect width="23.25" height="24.3" fill="white" transform="translate(0 0.851562)"/>
</clipPath>
</defs>
</svg>
