<svg width="8" height="15" viewBox="0 0 8 15" fill="none" xmlns="http://www.w3.org/2000/svg">
<g clip-path="url(#clip0_0_409)">
<path fill-rule="evenodd" clip-rule="evenodd" d="M2.18018 0.459143L7.64119 6.55118C8.11756 7.08259 8.11756 7.90984 7.64119 8.44125L2.18018 14.5333C1.70381 15.0647 1.01627 15.1852 0.539906 14.6483L0.323822 14.473C-0.0445017 14.0019 -0.152543 13.4102 0.274713 12.9938C1.64979 11.4544 2.97576 9.98069 4.30172 8.44125C4.77809 7.90436 4.77809 7.08259 4.30172 6.55118C2.98067 5.072 1.64979 3.53255 0.274712 2.05885C-0.152544 1.64797 -0.0445018 1.05629 0.323822 0.585148L0.539906 0.349574C1.01627 -0.181836 1.70381 -0.0667882 2.18018 0.464622L2.18018 0.459143Z" fill="#1A1A1A"/>
</g>
<defs>
<clipPath id="clip0_0_409">
<rect width="15" height="8" fill="white" transform="matrix(1.19249e-08 1 1 -1.19249e-08 0 0)"/>
</clipPath>
</defs>
</svg>
