<svg width="86" height="87" viewBox="0 0 86 87" fill="none" xmlns="http://www.w3.org/2000/svg">
<path d="M21.9663 59.9003C21.9663 61.6946 22.2076 63.3105 22.7425 64.8319C23.3614 66.5842 24.6725 67.7279 26.5396 68.0742C27.3053 68.2106 28.1024 68.221 28.8786 68.221C44.843 68.2315 60.7969 68.2315 76.7612 68.242C77.5479 68.242 78.3241 68.263 79.1108 68.2945C79.8135 68.326 80.4009 68.6408 80.81 69.1969C81.303 69.8894 81.7645 70.6554 81.3449 71.5368C80.8624 72.5441 80.2121 73.394 78.922 73.394C77.2332 73.394 75.5445 73.394 73.8662 73.4045C73.4676 73.4045 73.0586 73.4779 72.5446 73.5304C72.702 74.2124 72.8278 74.7895 72.9747 75.3561C74.2858 80.4975 71.0237 86.4889 64.468 86.9611C59.6745 87.3073 55.867 83.9182 54.8391 79.8155C54.43 78.1891 54.472 76.5942 54.944 74.9994C55.0803 74.5482 55.1747 74.0865 55.2901 73.6143C55.0279 73.5199 54.8705 73.4149 54.7027 73.4149C50.9057 73.4045 47.1191 73.394 43.3221 73.4045C43.0913 73.4045 42.871 73.4884 42.5459 73.5618C42.7347 74.3698 42.9445 75.1148 43.0703 75.8702C43.6577 79.4273 42.6508 82.4597 39.8922 84.7891C36.693 87.4857 32.34 87.727 28.7947 85.4501C25.3438 83.2361 23.781 78.9656 24.8823 75.0098C25.0396 74.4432 25.4172 73.9186 25.2389 73.1736C25.0396 73.0792 24.7774 72.9323 24.5047 72.8274C20.2357 71.3059 17.8337 68.242 17.1728 63.8141C16.6799 60.5404 16.2813 57.2457 15.8512 53.9614C15.4631 51.034 15.096 48.1065 14.7184 45.179C14.131 40.6986 13.5541 36.2183 12.9562 31.7484C12.1381 25.5996 11.299 19.4509 10.4703 13.3126C10.313 12.1165 10.1871 10.9203 9.99832 9.73462C9.78854 8.41254 9.42142 7.15341 8.50888 6.10414C8.0054 5.52704 7.44948 5.1493 6.65231 5.18078C5.81319 5.20177 4.96357 5.19127 4.12445 5.17029C3.46364 5.1493 2.79234 5.1493 2.14201 5.04438C0.820393 4.85551 -0.0501995 3.78525 0.00224583 2.54711C0.0651802 1.22503 1.1036 0.0708259 2.38326 0.0393477C4.06151 -0.00262318 5.76074 -0.0341013 7.43899 0.0708259C9.26409 0.186246 10.7535 1.08862 11.9912 2.4107C13.7429 4.27841 14.6764 6.52385 15.0436 9.03161C15.2009 10.1019 15.3163 11.1826 15.4736 12.2529C15.5365 12.6621 15.6729 13.0503 15.7988 13.5225C16.2498 13.575 16.6484 13.6694 17.0575 13.6694C23.8649 13.6694 30.6723 13.6694 37.4797 13.6484C38.0671 13.6484 38.6754 13.7533 39.2418 13.4281C39.5985 12.8719 39.4621 12.2529 39.4726 11.6653C39.5041 8.71683 39.525 5.75788 39.5145 2.80943C39.5145 1.97001 39.7768 1.30897 40.3956 0.731867C40.9201 0.249202 41.4655 0.028855 42.1788 0.028855C46.5107 0.0498404 50.8532 0.028855 55.1852 0.028855C55.6048 0.028855 56.0558 0.00786953 56.4334 0.16526C57.2935 0.51152 58.0068 1.06763 58.1326 2.09592C58.2061 2.69401 58.2795 3.29209 58.2795 3.89018C58.3005 6.54484 58.2795 9.189 58.29 11.8437C58.29 12.3683 58.1536 12.9349 58.5417 13.449C59.192 13.7848 59.9263 13.6379 60.629 13.6484C65.5064 13.6694 70.3839 13.6484 75.2613 13.6484C76.048 13.6484 76.8241 13.6484 77.6108 13.6694C82.3938 13.7323 86.3063 17.3209 85.9811 22.7351C85.8972 24.1201 85.7294 25.4947 85.551 26.8692C85.079 30.4473 84.5861 34.0253 84.1036 37.6138C83.5371 41.8528 82.9812 46.0919 82.4043 50.3205C81.9008 54.0454 79.9814 56.805 76.6668 58.5887C75.3242 59.3127 73.8767 59.7115 72.3453 59.7115C70.5936 59.7115 68.8525 59.7115 67.1008 59.7115C52.8881 59.7115 38.6754 59.7115 24.4627 59.722C23.6866 59.722 22.9104 59.6485 21.9768 59.8793L21.9663 59.9003ZM21.3055 54.5176C21.8719 54.5385 22.4069 54.5805 22.9418 54.5805C38.6649 54.5805 54.3776 54.5805 70.1007 54.5805C70.8873 54.5805 71.674 54.591 72.4502 54.5176C74.7893 54.2762 76.6039 52.7128 77.1913 50.4359C77.3591 49.7958 77.4745 49.1453 77.5584 48.4842C77.8521 46.2178 78.0933 43.9409 78.3975 41.6745C79.1947 35.7671 80.0128 29.8597 80.8205 23.9628C80.9044 23.3647 80.9568 22.7666 80.9568 22.158C80.9568 20.3638 79.8135 19.0836 78.0199 18.8948C77.485 18.8318 76.9395 18.8318 76.3941 18.8318C71.0342 18.8213 65.6743 18.8003 60.3144 18.8108C59.685 18.8108 58.9822 18.601 58.4368 19.1151C58.1221 21.5914 58.2061 25.9983 58.5942 27.268C59.6431 27.268 60.7234 27.2575 61.7933 27.268C62.2758 27.268 62.7688 27.268 63.2303 27.3834C65.0554 27.8136 65.8316 29.7862 64.7722 31.3496C64.468 31.7903 64.0904 32.189 63.7023 32.5668C59.6431 36.6065 55.5838 40.6357 51.514 44.6544C51.1259 45.0321 50.7169 45.3889 50.2658 45.6932C49.5001 46.2073 48.661 46.2493 47.8848 45.7561C47.3289 45.3994 46.8149 44.9797 46.3429 44.518C42.3151 40.5413 38.2978 36.554 34.2805 32.5563C33.9868 32.2625 33.6721 31.9687 33.4204 31.6329C32.0149 29.8597 32.9064 27.5932 35.1301 27.3099C35.8434 27.2155 36.5776 27.2785 37.2909 27.247C37.9412 27.2155 38.6125 27.3729 39.2943 27.0056C39.3362 26.7433 39.4306 26.46 39.4306 26.1662C39.4306 23.9418 39.4306 21.7068 39.4306 19.4824C39.4306 19.3145 39.3048 19.1571 39.2418 19.0102C37.7419 18.7269 23.3089 18.5905 17.5819 18.8108C17.2358 18.8213 16.9001 18.9262 16.5225 18.9892C16.5015 19.3564 16.4281 19.6607 16.4701 19.944C17.949 31.0453 19.449 42.1466 20.9489 53.2374C21.0014 53.6467 21.1587 54.0349 21.2846 54.5176H21.3055ZM44.7591 5.4431C44.5388 6.11463 44.6122 6.83863 44.6122 7.55214C44.6122 14.3619 44.6122 21.1612 44.6122 27.971C44.6122 28.695 44.5808 29.419 44.5283 30.1325C44.4654 30.9719 44.0563 31.6119 43.3116 32.0212C42.9025 32.2415 42.483 32.4724 41.9061 32.7871C44.1927 35.2319 46.5947 37.3829 48.8603 39.7438C49.196 39.534 49.4792 39.408 49.6994 39.2192C51.0945 38.0125 55.2901 33.6475 56.0034 32.6402C55.6992 32.5563 55.4265 32.4933 55.1747 32.3884C53.8636 31.8743 53.1189 30.9614 53.1189 29.5134C53.1189 28.9678 53.1084 28.4327 53.1084 27.887C53.1084 21.0773 53.1084 14.278 53.0979 7.46819C53.0979 6.75469 53.1818 6.03069 52.8986 5.36965C51.4196 5.05487 46.0912 5.08635 44.7696 5.42211L44.7591 5.4431ZM33.8819 81.8301C36.2524 81.8301 38.1719 79.9414 38.1615 77.633C38.1615 75.3036 36.2105 73.4254 33.9029 73.373C32.0044 73.331 29.6653 74.9993 29.6234 77.633C29.5814 80.0568 31.438 81.8301 33.8819 81.8301ZM63.8702 73.394C61.5311 73.394 59.7794 75.2617 59.7375 77.6855C59.6955 80.3611 61.8458 81.7986 63.7862 81.8826C66.0624 81.9875 68.0658 80.0149 68.1707 77.7694C68.2756 75.482 66.1358 73.2995 63.8702 73.394Z" fill="#A39FA3"/>
</svg>
