<svg width="12" height="12" viewBox="0 0 12 12" fill="none" xmlns="http://www.w3.org/2000/svg">
<path fill-rule="evenodd" clip-rule="evenodd" d="M10.1889 3.26883C10.7018 4.05397 11 4.99216 11 6C11 8.76142 8.76142 11 6 11C3.23858 11 1 8.76142 1 6C1 3.23858 3.23858 1 6 1C6.8317 1 7.61597 1.20307 8.30594 1.56233L8.7043 0.642547C7.89168 0.23155 6.97288 0 6 0C2.68629 0 0 2.68629 0 6C0 9.31371 2.68629 12 6 12C9.31371 12 12 9.31371 12 6C12 4.96613 11.7385 3.99333 11.2781 3.14414L10.1889 3.26883Z" fill="#1A1A1A"/>
<path d="M5.704 3.4H6.376L6.256 7.32H5.816L5.704 3.4ZM6.04 9.04C5.92267 9.04 5.82133 9 5.736 8.92C5.656 8.83467 5.616 8.736 5.616 8.624C5.616 8.50667 5.656 8.41067 5.736 8.336C5.816 8.256 5.91733 8.216 6.04 8.216C6.15733 8.216 6.256 8.256 6.336 8.336C6.416 8.41067 6.456 8.50667 6.456 8.624C6.456 8.736 6.416 8.83467 6.336 8.92C6.256 9 6.15733 9.04 6.04 9.04Z" fill="#1A1A1A"/>
</svg>
