<svg width="17" height="18" viewBox="0 0 17 18" fill="none" xmlns="http://www.w3.org/2000/svg">
<g opacity="0.5" clip-path="url(#clip0_0_2014)">
<path d="M12.3723 13.6363C11.6162 14.0084 10.934 14.4101 10.2074 14.6907C5.95449 16.3299 1.18468 13.7308 0.198234 9.3302C-0.764587 5.03885 1.86693 1.05171 6.20258 0.142047C9.62266 -0.575638 13.5803 1.4711 14.7498 5.26627C15.4232 7.45181 15.2224 9.54875 14.0292 11.5335C13.5655 12.3043 13.5832 12.3132 14.2182 12.9541C14.9329 13.6747 15.6506 14.3924 16.3624 15.116C16.5396 15.2961 16.7168 15.4852 16.8468 15.6978C17.0978 16.1083 17.0358 16.4273 16.6843 16.7522C16.3004 17.1037 15.9401 17.1716 15.5709 16.8231C14.6287 15.937 13.725 15.0067 12.8065 14.0941C12.6499 13.9405 12.5052 13.7781 12.3723 13.6363ZM7.635 13.3557C11.0108 13.3262 13.3499 10.4053 13.3558 7.62016C13.3588 4.46293 10.7243 1.82255 7.60841 1.82551C4.46595 1.82846 1.80491 4.46588 1.81081 7.5729C1.81967 10.801 4.38917 13.3557 7.635 13.3557Z" fill="#1A1A1A"/>
</g>
<defs>
<clipPath id="clip0_0_2014">
<rect width="17" height="17.0502" fill="white"/>
</clipPath>
</defs>
</svg>
