<svg width="17" height="15" viewBox="0 0 17 15" fill="none" xmlns="http://www.w3.org/2000/svg">
<g clip-path="url(#clip0_2059_1167)">
<path d="M8.58383 0.0305588C10.7453 0.0305588 12.9093 0.0357173 15.0707 0.0305588C15.7929 0.0305588 16.35 0.316858 16.7008 0.941043C16.8401 1.18607 16.9071 1.48011 16.9613 1.75867C17.0077 2.00112 17 2.25905 17 2.50924C17 5.53989 17 8.57054 17 11.6038C17 11.9133 17 12.2228 16.9794 12.5297C16.9097 13.5537 16.2314 14.2424 15.2126 14.3326C15.0398 14.3481 14.8669 14.361 14.6915 14.361C10.5209 14.361 6.35017 14.3558 2.18207 14.361C1.45987 14.361 0.864057 14.1366 0.417843 13.546C0.21408 13.2751 0.0773782 12.9888 0.0696404 12.6458C0.0541648 12.1454 0.0180549 11.6425 0.0154756 11.1421C0 8.37709 0 5.61727 0 2.85486C0 2.48861 0.0206342 2.11977 0.0619026 1.75609C0.172811 0.801762 0.85374 0.125992 1.80807 0.06151C2.48126 0.0150831 3.15703 0.00992456 3.8328 0.00734528C5.41648 -0.000392541 7.00015 0.00734528 8.58125 0.00734528C8.58125 0.0176624 8.58125 0.0254002 8.58125 0.0357173L8.58383 0.0305588ZM8.60704 1.32793V1.29182C6.65969 1.29182 4.70976 1.29182 2.7624 1.29182C2.47352 1.29182 2.18465 1.32535 1.89577 1.32535C1.61205 1.32535 1.46761 1.46464 1.44181 1.73804C1.4057 2.12235 1.34896 2.50408 1.34638 2.88839C1.33864 5.33871 1.33864 7.78902 1.34638 10.2393C1.34638 10.9538 1.3567 11.6682 1.38765 12.3801C1.41086 12.9244 1.5063 12.9992 2.05568 13.0275C2.15112 13.0327 2.24913 13.0327 2.34456 13.0327C6.3966 13.0378 10.4486 13.0404 14.5007 13.043C14.7509 13.043 15.0011 13.012 15.2487 12.9863C15.4937 12.9579 15.6304 12.8134 15.6459 12.5658C15.6665 12.2589 15.6975 11.9494 15.6975 11.6425C15.7026 8.65307 15.7026 5.66112 15.6975 2.67174C15.6975 2.46024 15.682 2.24616 15.651 2.03723C15.553 1.36404 15.5324 1.33309 14.8566 1.33051C12.7726 1.32278 10.6911 1.32793 8.60704 1.32793Z" fill="#1A1A1A"/>
<path d="M8.54259 6.92509C9.24931 6.31896 9.95345 5.72315 10.6499 5.1196C11.4933 4.3845 12.329 3.64167 13.1698 2.904C13.242 2.83952 13.3168 2.77761 13.3968 2.72345C13.7244 2.50421 13.8714 2.52227 14.1525 2.80599C14.4698 3.1284 14.4956 3.27799 14.2428 3.60298C14.1009 3.78611 13.9384 3.95376 13.7656 4.10594C12.1716 5.50391 10.5725 6.89672 8.97333 8.28952C8.82889 8.41591 8.67155 8.52424 8.491 8.66352C8.01384 8.25342 7.54441 7.85879 7.08272 7.45642C5.8782 6.40149 4.67368 5.34915 3.4769 4.28649C3.21897 4.05693 2.98425 3.79901 2.76502 3.53076C2.58189 3.30894 2.60252 3.06907 2.8166 2.85757C3.08485 2.59191 3.3763 2.52485 3.63939 2.71313C3.8741 2.88079 4.0856 3.08197 4.30226 3.27284C5.58932 4.40514 6.87638 5.54002 8.16602 6.67232C8.26403 6.75744 8.38268 6.81934 8.54259 6.92509Z" fill="#1A1A1A"/>
</g>
<defs>
<clipPath id="clip0_2059_1167">
<rect width="17" height="14.3562" fill="white"/>
</clipPath>
</defs>
</svg>
