<svg width="17" height="18" viewBox="0 0 17 18" fill="none" xmlns="http://www.w3.org/2000/svg">
<g clip-path="url(#clip0_2059_1345)">
<path d="M4.34272 11.8381C4.34272 12.1927 4.39042 12.512 4.49617 12.8127C4.61852 13.159 4.87773 13.3851 5.24685 13.4535C5.39822 13.4804 5.55582 13.4825 5.70928 13.4825C8.86541 13.4846 12.0195 13.4846 15.1756 13.4867C15.3311 13.4867 15.4846 13.4908 15.6401 13.497C15.779 13.5033 15.8952 13.5655 15.976 13.6754C16.0735 13.8122 16.1648 13.9636 16.0818 14.1378C15.9864 14.3369 15.8578 14.5048 15.6028 14.5048C15.2689 14.5048 14.9351 14.5048 14.6033 14.5069C14.5245 14.5069 14.4436 14.5214 14.342 14.5318C14.3731 14.6666 14.398 14.7806 14.427 14.8926C14.6862 15.9087 14.0413 17.0928 12.7453 17.1861C11.7976 17.2545 11.0448 16.5847 10.8416 15.7739C10.7607 15.4525 10.769 15.1373 10.8624 14.8221C10.8893 14.733 10.908 14.6417 10.9308 14.5484C10.8789 14.5297 10.8478 14.509 10.8147 14.509C10.064 14.5069 9.3154 14.5048 8.56473 14.5069C8.51911 14.5069 8.47556 14.5235 8.41127 14.538C8.4486 14.6977 8.49008 14.8449 8.51496 14.9942C8.63108 15.6972 8.43201 16.2965 7.88663 16.7569C7.25416 17.2898 6.39359 17.3375 5.69269 16.8875C5.01045 16.45 4.70147 15.606 4.9192 14.8242C4.95031 14.7122 5.02496 14.6085 4.98971 14.4613C4.95031 14.4426 4.89847 14.4136 4.84455 14.3929C4.00057 14.0922 3.52569 13.4867 3.39505 12.6116C3.29759 11.9646 3.21879 11.3135 3.13377 10.6644C3.05704 10.0858 2.98446 9.50729 2.90981 8.92873C2.79369 8.04327 2.67963 7.15781 2.56143 6.27443C2.39969 5.05925 2.23379 3.84408 2.06997 2.63098C2.03887 2.39458 2.01398 2.15818 1.97666 1.92385C1.93518 1.66257 1.86261 1.41373 1.6822 1.20636C1.58266 1.09231 1.47275 1.01766 1.31515 1.02388C1.14926 1.02803 0.981293 1.02595 0.815399 1.0218C0.684757 1.01766 0.552042 1.01766 0.423474 0.99692C0.162191 0.959594 -0.00992438 0.748079 0.000443998 0.503385C0.0128861 0.242102 0.21818 0.0139973 0.471168 0.00777629C0.802957 -0.000518419 1.13889 -0.00673945 1.47068 0.0139973C1.8315 0.0368078 2.12596 0.215144 2.37066 0.476427C2.71696 0.845541 2.90152 1.28931 2.9741 1.78492C3.0052 1.99643 3.02801 2.21002 3.05912 2.42154C3.07156 2.50241 3.09852 2.57913 3.1234 2.67245C3.21257 2.68282 3.29137 2.70148 3.37224 2.70148C4.71806 2.70148 6.06387 2.70148 7.40969 2.69733C7.52582 2.69733 7.64609 2.71807 7.75807 2.65379C7.82857 2.54388 7.80161 2.42154 7.80369 2.30541C7.80991 1.72271 7.81406 1.13793 7.81198 0.555227C7.81198 0.389333 7.86382 0.258691 7.98617 0.144639C8.08985 0.0492498 8.19769 0.00570261 8.3387 0.00570261C9.19512 0.00984996 10.0536 0.00570261 10.9101 0.00570261C10.993 0.00570261 11.0822 0.00155526 11.1568 0.0326604C11.3269 0.101092 11.4679 0.210997 11.4928 0.414217C11.5073 0.532416 11.5218 0.650616 11.5218 0.768815C11.5259 1.29346 11.5218 1.81602 11.5239 2.34066C11.5239 2.44435 11.4969 2.55632 11.5736 2.65793C11.7022 2.72429 11.8474 2.69526 11.9863 2.69733C12.9506 2.70148 13.9148 2.69733 14.8791 2.69733C15.0346 2.69733 15.188 2.69733 15.3436 2.70148C16.2892 2.71392 17.0627 3.42312 16.9984 4.49314C16.9818 4.76686 16.9486 5.03852 16.9133 5.31017C16.82 6.01729 16.7226 6.72441 16.6272 7.43361C16.5152 8.27138 16.4053 9.10914 16.2912 9.94483C16.1917 10.681 15.8122 11.2264 15.1569 11.5789C14.8915 11.722 14.6053 11.8008 14.3026 11.8008C13.9563 11.8008 13.6121 11.8008 13.2658 11.8008C10.4559 11.8008 7.64609 11.8008 4.83626 11.8028C4.68281 11.8028 4.52935 11.7883 4.3448 11.834L4.34272 11.8381ZM4.21208 10.7743C4.32406 10.7785 4.42982 10.7867 4.53557 10.7867C7.64402 10.7867 10.7504 10.7867 13.8588 10.7867C14.0143 10.7867 14.1699 10.7888 14.3233 10.7743C14.7858 10.7266 15.1445 10.4176 15.2606 9.96764C15.2938 9.84115 15.3166 9.71258 15.3332 9.58194C15.3913 9.13403 15.439 8.68404 15.4991 8.23612C15.6567 7.06864 15.8184 5.90116 15.9781 4.73576C15.9947 4.61756 16.0051 4.49936 16.0051 4.37909C16.0051 4.02449 15.779 3.7715 15.4244 3.73417C15.3187 3.72173 15.2109 3.72173 15.103 3.72173C14.0434 3.71966 12.9837 3.71551 11.9241 3.71758C11.7997 3.71758 11.6607 3.67611 11.5529 3.77772C11.4907 4.26711 11.5073 5.13805 11.584 5.38897C11.7914 5.38897 12.005 5.38689 12.2165 5.38897C12.3119 5.38897 12.4093 5.38897 12.5006 5.41178C12.8614 5.4968 13.0148 5.88665 12.8054 6.19563C12.7453 6.28272 12.6706 6.36152 12.5939 6.43617C11.7914 7.23454 10.9889 8.03083 10.1843 8.82505C10.1075 8.8997 10.0267 8.97021 9.9375 9.03034C9.78612 9.13195 9.62023 9.14025 9.46678 9.04278C9.35687 8.97228 9.25526 8.88933 9.16195 8.79809C8.36565 8.01217 7.57144 7.22417 6.77722 6.4341C6.71915 6.37604 6.65695 6.31797 6.60718 6.25162C6.3293 5.90116 6.50557 5.45325 6.94519 5.39726C7.0862 5.3786 7.23135 5.39104 7.37236 5.38482C7.50093 5.3786 7.63365 5.4097 7.76844 5.33712C7.77673 5.28528 7.79539 5.22929 7.79539 5.17123C7.79539 4.73161 7.79539 4.28992 7.79539 3.8503C7.79539 3.81712 7.77051 3.78601 7.75807 3.75698C7.46153 3.70099 4.60815 3.67404 3.47593 3.71758C3.40749 3.71966 3.34114 3.74039 3.26648 3.75284C3.26234 3.82541 3.24782 3.88555 3.25612 3.94154C3.5485 6.13549 3.84504 8.32944 4.14158 10.5213C4.15194 10.6022 4.18305 10.6789 4.20793 10.7743H4.21208ZM8.84882 1.07572C8.80527 1.20843 8.81979 1.35152 8.81979 1.49253C8.81979 2.83834 8.81979 4.18209 8.81979 5.5279C8.81979 5.67099 8.81357 5.81407 8.8032 5.95508C8.79076 6.12097 8.70988 6.24747 8.56265 6.32834C8.48178 6.37189 8.39883 6.41751 8.28478 6.47972C8.73684 6.96289 9.21171 7.38799 9.65963 7.85457C9.72599 7.81309 9.78197 7.78821 9.82552 7.75088C10.1013 7.51241 10.9308 6.64976 11.0718 6.45069C11.0117 6.4341 10.9577 6.42166 10.908 6.40092C10.6488 6.29931 10.5015 6.1189 10.5015 5.83273C10.5015 5.7249 10.4995 5.61914 10.4995 5.51131C10.4995 4.1655 10.4995 2.82175 10.4974 1.47594C10.4974 1.33493 10.514 1.19185 10.458 1.0612C10.1656 0.998994 9.11218 1.00521 8.85089 1.07157L8.84882 1.07572ZM6.69842 16.1721C7.16707 16.1721 7.54655 15.7988 7.54448 15.3426C7.54448 14.8823 7.15877 14.5111 6.70257 14.5007C6.32723 14.4924 5.8648 14.8221 5.85651 15.3426C5.84821 15.8216 6.21525 16.1721 6.69842 16.1721ZM12.6271 14.5048C12.1646 14.5048 11.8183 14.874 11.81 15.353C11.8017 15.8818 12.2268 16.1659 12.6105 16.1825C13.0605 16.2032 13.4565 15.8133 13.4773 15.3696C13.498 14.9175 13.075 14.4862 12.6271 14.5048Z" fill="#1A1A1A"/>
</g>
<defs>
<clipPath id="clip0_2059_1345">
<rect width="17" height="17.1949" fill="white"/>
</clipPath>
</defs>
</svg>
