<svg width="17" height="18" viewBox="0 0 17 18" fill="none" xmlns="http://www.w3.org/2000/svg">
<path d="M11.6603 8.91905C12.6018 9.53234 13.5117 10.0218 14.3035 10.6639C15.9332 11.9797 16.8114 13.7361 16.9899 15.8265C17.01 16.0539 17.0014 16.2929 16.9524 16.5146C16.8747 16.8745 16.6069 17.0559 16.2672 17.0358C15.9044 17.0127 15.7604 16.8918 15.6712 16.5031C15.6337 16.339 15.6164 16.172 15.5963 16.005C15.2796 13.1746 13.6787 11.3693 11.0643 10.422C9.02864 9.68782 7.0045 9.78284 5.0725 10.7733C2.99653 11.8358 1.67782 13.4798 1.41005 15.861C1.38413 16.0914 1.3611 16.3217 1.30351 16.5463C1.21138 16.9004 1.01846 17.0271 0.661431 17.0127C0.255452 16.9955 0.0164709 16.8486 0.00495371 16.4801C-0.012322 15.9819 0.0135916 15.4694 0.114367 14.98C0.603845 12.5527 2.05789 10.8424 4.15976 9.62448C4.35844 9.50931 4.56574 9.39989 4.77017 9.29624C4.95445 9.2041 5.1416 9.12348 5.42089 8.99391C5.19343 8.73766 5.0034 8.52459 4.81624 8.31152C3.06276 6.30466 3.08867 3.44265 4.90838 1.55672C6.97571 -0.588352 10.4222 -0.55956 12.3859 1.91087C13.8716 3.7824 13.8946 6.61274 12.0433 8.45837C11.8993 8.60233 11.7812 8.77221 11.6632 8.91617L11.6603 8.91905ZM12.0375 5.06081C12.121 2.94165 10.2379 1.3782 8.49021 1.40987C6.59852 1.44442 4.91414 3.06834 4.91126 4.94276C4.91126 6.51197 6.14647 8.53899 8.5334 8.55338C10.4309 8.5649 12.026 6.96114 12.0375 5.06081Z" fill="#1A1A1A"/>
</svg>
