<svg width="19" height="18" viewBox="0 0 19 18" fill="none" xmlns="http://www.w3.org/2000/svg">
<g clip-path="url(#clip0_59_4010)">
<path d="M3.02571 17.9424C3.49524 17.9956 3.95986 18.0029 4.35564 18.0029C7.60056 18.0029 11.0692 17.998 14.9582 17.9884C15.3318 17.9884 15.6981 17.9835 16.0669 17.9328C16.9961 17.8071 17.7557 17.3575 18.3186 16.5961C18.7857 15.9653 19.007 15.2836 18.9971 14.5126C18.975 13.0986 18.9775 11.6653 18.9799 10.2779C18.9799 9.74128 18.9799 9.20469 18.9799 8.6681V8.04449C18.9799 7.12842 18.9799 6.20993 18.9799 5.29385C18.9799 4.74034 18.8742 4.26418 18.6505 3.83877C18.0654 2.72691 17.1264 2.09847 15.8604 1.96553C15.5752 1.93653 15.29 1.93411 14.9877 1.93411C14.8402 1.93411 14.6902 1.93411 14.5427 1.92686C14.4911 1.92686 14.437 1.91719 14.3706 1.90752C14.3584 1.78667 14.3485 1.67307 14.3436 1.55946C14.3387 1.4652 14.3362 1.37093 14.3362 1.27425C14.3362 1.11714 14.3313 0.955192 14.3141 0.793248C14.2379 0.0318675 13.6823 0.00286261 13.5103 0.014948C13.0112 0.0415359 12.7138 0.33642 12.6744 0.844007C12.6597 1.02287 12.6597 1.20173 12.6597 1.37335C12.6597 1.49904 12.6597 1.62714 12.6548 1.75283C12.6548 1.79392 12.6474 1.83501 12.64 1.8761C11.6493 1.97278 8.88378 1.99454 6.56563 1.92444C6.51154 1.92444 6.45746 1.91477 6.38863 1.90511C6.37634 1.78667 6.36651 1.67548 6.36159 1.5643C6.35667 1.46761 6.35667 1.37093 6.35667 1.27425C6.35667 1.11955 6.35667 0.960027 6.33947 0.800499C6.2903 0.331586 5.97318 0.0125309 5.54544 0.000445527C5.06608 -0.014057 4.73667 0.326751 4.69242 0.839172C4.68259 0.967278 4.68013 1.09297 4.68013 1.21624C4.68013 1.32017 4.68013 1.41927 4.67276 1.51837C4.66784 1.58605 4.6703 1.64889 4.67276 1.71174C4.67521 1.80117 4.67521 1.85676 4.66538 1.89544C4.53755 1.90752 4.4048 1.91719 4.27206 1.92202C4.15898 1.92686 4.04835 1.92686 3.93527 1.92928H3.88857C3.68699 1.93169 3.47803 1.93411 3.26908 1.94861C1.41554 2.0888 0.0143256 3.54872 0.00695078 5.34944C-0.000424047 6.78761 0.00203423 8.24752 0.00695078 9.66152C0.00940905 11.2713 0.0118673 12.9367 0.00203423 14.573C-0.0102571 16.2142 1.37621 17.7587 3.02817 17.9424H3.02571ZM4.67521 3.9983C4.68259 4.10948 4.68505 4.22067 4.6875 4.33669C4.69242 4.49863 4.69488 4.66541 4.71455 4.83219C4.75388 5.22376 5.01691 5.46305 5.43482 5.4848C5.92156 5.50897 6.2313 5.29385 6.29767 4.88778C6.32226 4.73309 6.33209 4.5784 6.34192 4.42854C6.34684 4.35119 6.35176 4.27384 6.35913 4.19408C6.36651 4.10707 6.36651 4.02488 6.36896 3.93304C6.36896 3.81702 6.36896 3.71308 6.39109 3.61398C6.52629 3.59948 6.66396 3.58498 6.80162 3.58256C10.5579 3.49071 12.0672 3.55355 12.6671 3.62848C12.672 3.66716 12.6695 3.72033 12.6671 3.78318C12.6646 3.84844 12.6621 3.91612 12.6671 3.98621C12.672 4.08048 12.6744 4.17474 12.6744 4.28109C12.6744 4.43337 12.6744 4.59048 12.6966 4.75243C12.7531 5.20684 13.0801 5.48238 13.557 5.47755C13.9749 5.46305 14.2674 5.18992 14.3215 4.75968C14.3436 4.58806 14.3461 4.41887 14.3485 4.23034C14.3485 4.15057 14.351 4.06839 14.3559 3.98863C14.3633 3.86536 14.3706 3.73967 14.3829 3.59223C14.9139 3.5463 15.5137 3.51971 16.0841 3.66957C16.7576 3.84602 17.2714 4.46963 17.3329 5.18508C17.3599 5.51139 17.3525 5.84736 17.3452 6.1785C17.3452 6.27519 17.3402 6.36945 17.3402 6.4613C17.2517 6.51689 17.1485 6.51689 16.9715 6.51448H16.851C16.2389 6.51448 15.6293 6.51448 15.0172 6.51448H11.1085C8.26921 6.51448 5.43236 6.51448 2.58814 6.50964H2.38164C2.16286 6.51448 1.95145 6.51689 1.75478 6.49272C1.63679 5.90779 1.66629 5.11499 1.82362 4.74759C2.12844 4.04422 2.62993 3.66716 3.31825 3.62607L3.56899 3.60915C3.9574 3.58256 4.32368 3.55839 4.6703 3.61156C4.68013 3.65024 4.68259 3.70825 4.68013 3.80493C4.68013 3.86777 4.67767 3.93062 4.68013 3.99346L4.67521 3.9983ZM1.68595 14.196C1.68595 12.3469 1.68595 10.4954 1.68595 8.64634C1.68595 8.50615 1.69333 8.36113 1.7007 8.19677C1.80887 8.18468 1.89982 8.17743 1.99078 8.17501C5.26274 8.09766 15.8235 8.12425 17.3476 8.20885C17.355 8.25236 17.3525 8.31762 17.3476 8.40222C17.3476 8.44572 17.3427 8.48681 17.3452 8.52791C17.3452 9.37872 17.3452 10.2295 17.3427 11.0803L17.3378 13.0817C17.3378 13.4636 17.3378 13.8431 17.3378 14.225V14.2951C17.3378 14.4884 17.3353 14.6721 17.3009 14.8389C17.1534 15.5979 16.7158 16.0765 16.0029 16.2577C15.7006 16.3351 15.3564 16.3447 15.0295 16.3472C11.701 16.3544 8.31838 16.3568 5.03904 16.3568H4.23518C3.95494 16.3568 3.66732 16.3568 3.38954 16.3327C2.42343 16.2408 1.77691 15.5858 1.7007 14.6214C1.69087 14.4957 1.69087 14.37 1.69087 14.2346V14.196H1.68595Z" fill="#1A1A1A"/>
<path d="M8.93354 11.3694C9.07366 11.4105 9.20887 11.425 9.34407 11.4419C9.3957 11.4491 9.44486 11.454 9.49403 11.4612L9.83819 11.5144L9.84802 11.4322C10.3249 11.3766 10.642 11.0503 10.647 10.6056C10.6519 10.185 10.2831 9.81276 9.83819 9.78859C9.57023 9.77409 9.27278 9.80551 8.92862 9.88286C8.59922 9.95779 8.37797 10.2309 8.36568 10.579C8.35339 10.9343 8.59676 11.2727 8.92862 11.3669L8.93354 11.3694Z" fill="#1A1A1A"/>
<path d="M9.94658 13.0929C9.627 13.0639 9.32218 13.0687 9.04194 13.1074C8.60682 13.1678 8.33149 13.6101 8.37574 13.9654C8.41999 14.3135 8.65107 14.577 8.99277 14.6664C9.11323 14.6978 9.23368 14.7123 9.33939 14.7268L9.48688 14.7461L9.64175 14.7341C9.72534 14.7268 9.79908 14.722 9.87529 14.7123C9.96133 14.7002 10.0326 14.6761 10.0916 14.6543C10.4284 14.5334 10.6521 14.2289 10.6496 13.8953C10.6472 13.482 10.3374 13.1291 9.94904 13.0929H9.94658Z" fill="#1A1A1A"/>
<path d="M3.99996 14.6851C4.12287 14.7165 4.23841 14.7261 4.37853 14.7382C4.42524 14.7431 4.47195 14.7455 4.54324 14.7552L4.60961 14.7503C4.63911 14.7455 4.67107 14.7431 4.71778 14.7382C4.82348 14.7261 4.95623 14.7116 5.08898 14.6681C5.41101 14.5594 5.61013 14.2862 5.63963 13.9237C5.66667 13.578 5.41838 13.23 5.07423 13.1285C4.64894 13.0052 4.2507 13.0149 3.88934 13.1599C3.54764 13.2952 3.32394 13.6723 3.38785 14.001C3.48372 14.4917 3.81313 14.6416 3.99996 14.6899V14.6851Z" fill="#1A1A1A"/>
<path d="M3.9853 11.3927C4.11068 11.4241 4.22867 11.4362 4.36142 11.4507L4.49171 11.4628L4.61462 11.4579C4.70066 11.4579 4.78179 11.4531 4.86537 11.441C5.27836 11.3782 5.6176 11.0301 5.63726 10.6482C5.65693 10.2736 5.34719 9.83125 4.87028 9.79983C4.60233 9.78049 4.3098 9.80224 3.97301 9.86267C3.63623 9.9231 3.40269 10.2011 3.39286 10.5491C3.38303 10.9479 3.63131 11.3032 3.9853 11.3927Z" fill="#1A1A1A"/>
<path d="M13.958 14.6513C14.0883 14.6948 14.2162 14.7141 14.3194 14.7262L14.4423 14.7456L14.6119 14.7383C14.698 14.7335 14.7717 14.7311 14.843 14.7238C14.9241 14.7165 14.9954 14.6924 15.0594 14.673C15.3961 14.5643 15.6174 14.2718 15.6248 13.9286C15.6346 13.5636 15.4306 13.2542 15.1061 13.1406C14.7152 13.0028 14.317 13.0053 13.9236 13.1479C13.5819 13.2687 13.3459 13.6095 13.3779 13.9382C13.4099 14.2791 13.6213 14.5401 13.9556 14.6537L13.958 14.6513Z" fill="#1A1A1A"/>
<path d="M14.4949 11.4503C14.5613 11.4503 14.6301 11.4503 14.6989 11.4455H14.7407C14.8046 11.4382 14.9546 11.4262 15.107 11.3778C15.2766 11.3271 15.5667 11.1675 15.6208 10.6914C15.6576 10.3506 15.5052 10.0629 15.2102 9.92515C14.7579 9.71245 14.2786 9.71245 13.8238 9.92515C13.6197 10.0194 13.4772 10.1838 13.4182 10.3892C13.3592 10.6044 13.4034 10.8412 13.5386 11.0394C13.7869 11.402 14.163 11.4503 14.4973 11.4503H14.4949Z" fill="#1A1A1A"/>
</g>
<defs>
<clipPath id="clip0_59_4010">
<rect width="19" height="18" fill="white"/>
</clipPath>
</defs>
</svg>
