<?xml version="1.0" encoding="utf-8"?><svg viewBox="0 0 17 18" xmlns="http://www.w3.org/2000/svg" xmlns:xlink="http://www.w3.org/1999/xlink"><style>:root>svg{display:none}:root>svg:target{display:block}</style><svg viewBox="0 0 15 18" id="cart" xmlns="http://www.w3.org/2000/svg"><path d="M3.036 18c.049 0 .1 0 .145-.004.18-.014.359-.01.552-.005.094 0 .188.005.28.005h1.772c1.873.004 3.811.007 5.714 0h.108c.333 0 .703 0 1.046-.113 1.482-.485 2.425-1.827 2.342-3.344-.016-.317-.032-.634-.046-.952l-.034-.756-.076-1.515c-.07-1.37-.138-2.788-.219-4.18-.085-1.52-1.013-2.664-2.48-3.066a2.029 2.029 0 01-.186-.065c-.152-.643-.347-1.317-.804-1.912C10.637 1.43 10.046.948 9.339.62 8.674.31 7.943.183 7.109.233c-.862.051-1.662.38-2.445 1-.878.697-1.43 1.623-1.641 2.751l-.092.03c-.18.058-.334.108-.49.17C1.395 4.61.729 5.377.462 6.464a5.505 5.505 0 00-.129.973c-.103 1.86-.19 3.56-.269 5.199A61.26 61.26 0 000 14.858c-.007.807.372 1.632 1.041 2.26.598.56 1.324.882 1.995.882zM4.85 5.547c.843-.004 1.684-.004 2.528-.004H8.89c.403-.005.819-.005 1.228 0 .096 0 .195.011.303.025v.01c.019.183.037.372.076.562.048.24.2.435.411.534a.705.705 0 00.646-.026c.15-.08.276-.23.384-.455a.976.976 0 00.08-.35.963.963 0 01.01-.084c.002-.019.004-.037.009-.055.358.112.625.365.832.779.09.177.13.397.16.59.044.274.065.554.081.89.101 2.041.2 4.08.297 6.12.009.194.02.41.016.619-.02.945-.687 1.636-1.62 1.68-.29.014-.587.014-.872.012h-.252c-2.329 0-4.657.002-6.985.004h-.062c-.184 0-.375 0-.554-.014-.789-.064-1.389-.625-1.494-1.39a4.707 4.707 0 01-.016-.867c.055-1.186.117-2.392.177-3.56l.043-.85.035-.724v-.044c.03-.586.057-1.193.103-1.788.053-.708.393-1.181 1.041-1.446.005.042.007.085.01.133.004.086.009.18.032.28.08.364.39.605.77.605h.004c.393-.004.67-.262.722-.673.02-.156.028-.313.037-.462v-.046a.628.628 0 01.19-.007l.118.002zm-.145-1.63c.057-.47.329-.854.556-1.1.538-.582 1.39-.998 2.076-1.011.891-.023 1.604.24 2.183.797.44.42.692.841.782 1.31-1.147.053-4.526.055-5.597.005zm7.2.178l-.013.034v-.032l.014-.002z"/></svg><svg viewBox="0 0 17 15" id="heart" xmlns="http://www.w3.org/2000/svg"><path d="M8.457 1.511c.354-.252.674-.476.988-.705 2.485-1.825 5.963-.322 7.001 1.959.942 2.068.634 3.99-.559 5.836-1.104 1.711-2.584 3.058-4.196 4.271-1.027.772-2.07 1.523-3.3 2.127-.932-.639-1.898-1.267-2.826-1.948C3.9 11.83 2.4 10.443 1.216 8.742.356 7.505-.134 6.145.032 4.62.43.91 3.912-.604 6.435.229c.543.178 1.014.572 1.511.88.181.112.336.264.511.402zm.056 2.172c-.152-.136-.266-.231-.37-.333-.359-.35-.697-.72-1.075-1.05-.428-.373-.9-.695-1.48-.794-1.575-.266-3.619.748-3.997 2.76-.255 1.354.123 2.547.876 3.646 1.471 2.145 3.489 3.688 5.652 5.067.328.21.578.154.892-.043 1.634-1.024 3.127-2.227 4.434-3.64.558-.604 1.037-1.294 1.469-1.996.731-1.193.76-2.449.268-3.763-.524-1.395-2.815-2.701-4.55-1.709-.429.245-.796.599-1.171.929-.325.285-.618.601-.945.929l-.003-.003z"/></svg><svg viewBox="0 0 17 18" id="person" xmlns="http://www.w3.org/2000/svg"><path d="M11.66 9.88c.942.613 1.852 1.103 2.643 1.745 1.63 1.316 2.508 3.072 2.687 5.162.02.228.011.467-.038.689-.077.36-.345.54-.685.52-.363-.022-.507-.143-.596-.532-.037-.164-.055-.331-.075-.498-.316-2.83-1.917-4.636-4.532-5.583-2.035-.734-4.06-.64-5.992.351-2.075 1.063-3.394 2.707-3.662 5.088-.026.23-.049.46-.106.685-.093.354-.286.481-.643.467-.406-.018-.645-.165-.656-.533a6.393 6.393 0 01.11-1.5c.489-2.427 1.943-4.138 4.045-5.356.198-.115.406-.224.61-.328.184-.092.372-.173.65-.302-.227-.256-.417-.47-.604-.683-1.753-2.006-1.727-4.868.092-6.754C6.976.373 10.422.4 12.386 2.872c1.486 1.871 1.509 4.702-.343 6.547-.144.144-.262.314-.38.458l-.003.003zm.377-3.858c.084-2.12-1.8-3.683-3.547-3.651-1.891.034-3.576 1.658-3.579 3.533 0 1.569 1.235 3.596 3.622 3.61 1.898.012 3.493-1.592 3.505-3.492z"/></svg><svg viewBox="0 0 17 18" id="search" xmlns="http://www.w3.org/2000/svg"><g clip-path="url(#dclip0_0_154)"><path d="M12.372 14.585c-.756.373-1.438.774-2.165 1.055-4.253 1.64-9.022-.96-10.009-5.36C-.765 5.987 1.867 2 6.203 1.09c3.42-.717 7.377 1.33 8.547 5.124.673 2.186.472 4.283-.72 6.268-.464.77-.447.78.188 1.42.715.72 1.433 1.439 2.144 2.162.178.18.355.37.485.582.25.41.189.73-.163 1.054-.384.352-.744.42-1.113.071-.942-.886-1.846-1.816-2.764-2.729-.157-.153-.302-.316-.435-.457zm-4.737-.28c3.376-.03 5.715-2.95 5.72-5.736.004-3.157-2.63-5.797-5.747-5.794-3.142.003-5.803 2.64-5.797 5.747.009 3.228 2.578 5.783 5.824 5.783z"/></g><defs><clipPath id="dclip0_0_154"><path transform="translate(0 .95)" d="M0 0h17v17.05H0z"/></clipPath></defs></svg></svg>