<svg width="13" height="21" viewBox="0 0 13 21" fill="none" xmlns="http://www.w3.org/2000/svg">
<path fill-rule="evenodd" clip-rule="evenodd" d="M9.59927 0.974118L1.29157 9.27432C0.564269 10.0916 0.564269 11.2163 1.29157 11.9361L9.59927 20.2513C10.3266 20.9786 11.3688 21.136 12.0961 20.4087L12.4185 20.0938C13.0633 19.3665 13.1458 18.6392 12.501 18.0769C10.484 15.9775 8.3846 13.9605 6.36766 11.9436C5.64036 11.2238 5.64036 10.0916 6.36766 9.28182C8.37711 7.27238 10.484 5.25543 12.501 3.15601C13.1458 2.59367 13.0633 1.79139 12.4185 1.14657L12.0961 0.899139C11.3688 0.0968612 10.3191 0.254318 9.59927 0.981616V0.974118Z" fill="#1A1A1A"/>
</svg>
