<svg width="14" height="21" viewBox="0 0 14 21" fill="none" xmlns="http://www.w3.org/2000/svg">
<path fill-rule="evenodd" clip-rule="evenodd" d="M4.20542 0.974118L12.5131 9.27432C13.2404 10.0916 13.2404 11.2163 12.5131 11.9361L4.20542 20.2513C3.47812 20.9786 2.43591 21.136 1.70861 20.4087L1.3862 20.0938C0.741377 19.3665 0.658899 18.6392 1.30372 18.0769C3.32066 15.9775 5.42008 13.9605 7.43702 11.9436C8.16432 11.2238 8.16432 10.0916 7.43702 9.28182C5.42758 7.27238 3.32066 5.25543 1.30372 3.15601C0.658899 2.59367 0.741377 1.79139 1.3862 1.14657L1.70861 0.899139C2.43591 0.0968612 3.48562 0.254318 4.20542 0.981616V0.974118Z" fill="#1A1A1A"/>
</svg>
