<svg width="17" height="18" viewBox="0 0 17 18" fill="none" xmlns="http://www.w3.org/2000/svg">
<path d="M4.62769 13.6363C5.38377 14.0084 6.06601 14.4101 6.79256 14.6907C11.0455 16.3299 15.8153 13.7308 16.8018 9.3302C17.7646 5.03885 15.1331 1.05171 10.7974 0.142047C7.37734 -0.575638 3.41973 1.4711 2.25017 5.26627C1.57679 7.45181 1.77762 9.54875 2.97081 11.5335C3.4345 12.3043 3.41678 12.3132 2.78179 12.9541C2.06706 13.6747 1.34937 14.3924 0.63759 15.116C0.460384 15.2961 0.283178 15.4852 0.153227 15.6978C-0.0978165 16.1083 -0.0357933 16.4273 0.315664 16.7522C0.699612 17.1037 1.05993 17.1716 1.42911 16.8231C2.37126 15.937 3.27501 15.0067 4.19353 14.0941C4.35006 13.9405 4.49478 13.7781 4.62769 13.6363ZM9.365 13.3557C5.98922 13.3262 3.6501 10.4053 3.64419 7.62016C3.64124 4.46293 6.27571 1.82255 9.39159 1.82551C12.534 1.82846 15.1951 4.46588 15.1892 7.5729C15.1803 10.801 12.6108 13.3557 9.365 13.3557Z" fill="#1A1A1A"/>
</svg>
