<svg width="15" height="8" viewBox="0 0 15 8" fill="none" xmlns="http://www.w3.org/2000/svg">
<path fill-rule="evenodd" clip-rule="evenodd" d="M0.455469 2.18213L6.55062 7.64315C7.0823 8.11951 7.90997 8.11951 8.44165 7.64315L14.5368 2.18213C15.0685 1.70576 15.1891 1.01822 14.6519 0.541859L14.4765 0.325775C14.0051 -0.0425487 13.4131 -0.15059 12.9966 0.276666C11.4563 1.65174 9.98188 2.97771 8.44165 4.30368C7.90449 4.78004 7.0823 4.78004 6.55062 4.30368C5.07068 2.98262 3.53045 1.65174 2.05599 0.276666C1.6449 -0.15059 1.05293 -0.0425487 0.581538 0.325775L0.345844 0.541859C-0.185837 1.01822 -0.0707306 1.70576 0.460951 2.18213H0.455469Z" fill="#1A1A1A"/>
</svg>
