<svg width="4" height="6" viewBox="0 0 4 6" fill="none" xmlns="http://www.w3.org/2000/svg">
<g clip-path="url(#clip0_2020_2310)">
<path fill-rule="evenodd" clip-rule="evenodd" d="M1.4335 0.016586L1.33398 0.134531L3.65419 2.47316C3.69473 2.49343 3.69473 2.55241 3.65419 2.57268L1.33398 4.91131L1.4335 5.0311C1.47404 5.04953 1.51275 5.04953 1.53302 5.0311L3.97116 2.57268C4.00987 2.55241 4.00987 2.49343 3.97116 2.47316L1.53117 0.016586C1.5109 -0.00552868 1.4722 -0.00552868 1.4335 0.016586Z" fill="#1A1A1A"/>
</g>
<g clip-path="url(#clip1_2020_2310)">
<path fill-rule="evenodd" clip-rule="evenodd" d="M0.0995162 0.016586L0 0.134531L2.3202 2.47316C2.36075 2.49343 2.36075 2.55241 2.3202 2.57268L0 4.91131L0.0995162 5.0311C0.14006 5.04953 0.178761 5.04953 0.199032 5.0311L2.63718 2.57268C2.67588 2.55241 2.67588 2.49343 2.63718 2.47316L0.19719 0.016586C0.176918 -0.00552868 0.138217 -0.00552868 0.0995162 0.016586Z" fill="#1A1A1A"/>
</g>
<defs>
<clipPath id="clip0_2020_2310">
<rect width="2.66667" height="5.04584" fill="white" transform="translate(1.33398)"/>
</clipPath>
<clipPath id="clip1_2020_2310">
<rect width="2.66667" height="5.04584" fill="white"/>
</clipPath>
</defs>
</svg>
