<svg width="17" height="18" viewBox="0 0 17 18" fill="none" xmlns="http://www.w3.org/2000/svg">
<g clip-path="url(#clip0_0_1050)">
<path d="M4.49481 3.30005C4.38233 3.06812 4.30955 2.92402 4.24118 2.77766C3.90815 2.05486 3.96108 1.3636 4.46173 0.744382C4.95355 0.134174 5.60859 -0.0819881 6.36507 0.0531132C7.26492 0.212983 7.77659 0.850211 8.15153 1.63155C8.2618 1.86347 8.33679 2.11341 8.46912 2.46692C8.61248 2.18096 8.72937 1.98056 8.81539 1.7689C9.00285 1.30505 9.27413 0.897496 9.63142 0.561995C10.5886 -0.336429 12.0398 -0.131525 12.7257 0.989816C13.0257 1.48068 13.1007 1.99857 12.8735 2.54123C12.7787 2.7664 12.675 2.98706 12.5427 3.28654C12.8095 3.31131 13.0389 3.34508 13.2683 3.35184C13.8969 3.3676 14.5254 3.35634 15.1518 3.38111C16.1928 3.42164 16.9427 4.16244 16.9669 5.22524C17 6.72036 16.9934 8.21774 16.9956 9.71286C17 11.8002 17 13.8897 16.989 15.9771C16.989 16.2495 16.9559 16.5467 16.85 16.7922C16.5214 17.5487 15.9347 17.9766 15.1143 17.9878C13.7447 18.0081 12.3773 18.0013 11.0077 17.9991C8.01258 17.9991 5.01531 17.9878 2.02024 17.9946C1.19759 17.9946 0.584458 17.6568 0.231578 16.898C0.112481 16.6391 0.04411 16.3351 0.0330825 16.0491C0 15.1777 0 14.304 0 13.4326C0 10.967 0 8.4992 0.004411 6.0336C0.004411 5.77015 0.022055 5.5067 0.0242605 5.24551C0.0330825 4.55874 0.370524 4.08814 0.915283 3.71436C1.32551 3.43515 1.74896 3.32482 2.23417 3.34508C2.8451 3.36985 3.45822 3.35634 4.06915 3.35409C4.19045 3.35409 4.31175 3.32482 4.4926 3.30005H4.49481ZM7.78101 16.6683C7.80527 16.5355 7.83835 16.4409 7.83835 16.3486C7.83835 14.8557 7.83835 13.3606 7.82953 11.8677C7.82953 11.7124 7.78321 11.557 7.76116 11.4196C6.91424 11.3003 1.74896 11.3363 1.35197 11.4624C1.34315 11.53 1.3233 11.611 1.3233 11.6898C1.31889 12.9868 1.31448 14.2838 1.31448 15.5808C1.31448 15.7767 1.32551 15.9748 1.35638 16.1684C1.41373 16.5287 1.54164 16.6436 1.89452 16.6796C1.98936 16.6886 2.0864 16.6931 2.18345 16.6931C3.83978 16.6976 5.49611 16.7043 7.15244 16.7066C7.35755 16.7066 7.56266 16.6863 7.7788 16.6728L7.78101 16.6683ZM1.36079 9.96279H7.74572C7.88246 9.48994 7.86923 5.12392 7.72807 4.7051C7.60236 4.69609 7.46121 4.67808 7.32006 4.67808C5.75856 4.67358 4.19486 4.66682 2.63337 4.66907C2.37532 4.66907 2.11728 4.68484 1.86144 4.71861C1.52621 4.76139 1.41814 4.87623 1.363 5.21624C1.34756 5.31306 1.34094 5.41213 1.34094 5.51121C1.33433 6.89149 1.32771 8.27403 1.32551 9.65431C1.32551 9.73312 1.34536 9.81418 1.3652 9.96504L1.36079 9.96279ZM15.6988 11.4512C15.1055 11.298 9.63142 11.3228 9.25428 11.4624C9.12636 12.2933 9.16385 16.2765 9.3028 16.6458C9.33368 16.6548 9.36235 16.6751 9.39323 16.6751C11.2436 16.6841 13.0919 16.7021 14.9423 16.6953C15.4914 16.6953 15.6988 16.4364 15.701 15.8487C15.7032 14.6328 15.701 13.4169 15.6988 12.2032C15.6988 11.9578 15.6988 11.7146 15.6988 11.4534V11.4512ZM9.20576 9.93127C10.1519 10.0731 15.2378 10.0213 15.6855 9.87498C15.6943 9.80067 15.7164 9.72186 15.7164 9.64305C15.712 8.32807 15.712 7.01533 15.701 5.70035C15.6921 4.77265 15.626 4.69384 14.7041 4.68484C13.0477 4.67133 11.3892 4.67808 9.73287 4.68033C9.57628 4.68033 9.4219 4.70285 9.21679 4.72086C9.17047 6.47943 9.17709 8.19522 9.20796 9.93352L9.20576 9.93127ZM7.08407 2.64255C7.00467 2.08414 6.71795 1.71036 6.32538 1.40863C6.14673 1.27128 5.94162 1.26677 5.73871 1.38386C5.51596 1.51446 5.35054 1.68559 5.37701 1.9648C5.41009 2.30255 5.59315 2.54798 5.90192 2.66282C6.27024 2.79792 6.64738 2.80242 7.08186 2.64255H7.08407ZM9.97548 2.57951C10.732 2.93077 11.1687 2.74163 11.473 2.36335C11.6627 2.12917 11.6781 1.86347 11.5039 1.60453C11.3208 1.32982 11.1003 1.24876 10.8025 1.37936C10.282 1.60453 10.0659 2.04811 9.97768 2.57951H9.97548Z" fill="#1A1A1A"/>
</g>
<defs>
<clipPath id="clip0_0_1050">
<rect width="17" height="18" fill="white"/>
</clipPath>
</defs>
</svg>
