<svg width="17" height="17" viewBox="0 0 17 17" fill="none" xmlns="http://www.w3.org/2000/svg">
<g clip-path="url(#clip0_2059_1427)">
<path d="M16.9591 4.06348C16.9693 4.17795 16.9795 4.25153 16.9795 4.32512C17.0122 5.93375 16.9979 8.66454 16.955 8.96092C16.8651 9.04268 16.7526 9.01202 16.6484 9.01202C15.8103 9.01202 14.9723 9.01202 14.1363 9.01202C13.5742 9.01202 13.6928 8.9875 13.3535 9.33293C12.9058 9.79079 12.9712 9.60887 12.9712 10.2527C12.9671 12.3356 12.9712 14.4184 12.9712 16.5033C12.9712 16.6403 12.9876 16.7813 12.9365 16.9305C12.8731 16.9428 12.8138 16.9591 12.7525 16.9673C12.6994 16.9734 12.6462 16.9693 12.591 16.9693C9.87455 16.9693 7.15807 16.9693 4.43954 16.9673C4.31281 16.9673 4.18608 16.9571 4.05322 16.9509C3.99394 16.7997 4.00212 16.6607 4.00212 16.5237C4.00212 15.5038 4.00621 14.4838 4.00825 13.4639C4.00825 13.3269 4.02665 13.1859 3.97146 13.0448C3.85291 12.9733 3.72005 12.9978 3.59536 12.9958C3.07005 12.9917 2.5427 12.9937 2.01739 12.9958C1.49208 12.9958 0.964726 12.9978 0.439416 12.9978C0.310644 12.9978 0.183915 12.9917 0.0387908 12.9876C0.0224387 12.9038 -0.00208936 12.8323 -0.00208936 12.7628C-0.00617737 12.4623 -0.00208936 12.1618 -0.00208936 11.8614C-0.00208936 10.7556 -0.00208936 9.64975 -0.00208936 8.54395C-0.00208936 8.39473 0.00813068 8.24552 0.0122187 8.11471C0.136903 8.0125 0.259543 8.04112 0.374008 8.04112C1.16913 8.04112 1.96424 8.04112 2.75732 8.04316C3.39096 8.04316 3.25197 8.08609 3.67508 7.65889C4.04709 7.28279 4.00621 7.38704 4.00621 6.84333C4.0103 4.76049 4.0103 2.67765 4.01234 0.592762C4.01234 0.412889 4.00621 0.230973 4.03074 0.0388361C4.10841 0.0265721 4.16768 0.00817603 4.229 0.00817603C4.44158 0 4.64598 0 4.85038 0C7.2664 0 9.68241 0 12.0984 0C12.3662 0 12.634 0.00613202 12.9119 0.01022C12.9324 0.0878923 12.961 0.147168 12.963 0.206445C12.9692 0.388361 12.9671 0.572322 12.9671 0.754238C12.9692 1.72105 12.9712 2.68787 12.9753 3.65468C12.9753 3.77119 12.9569 3.88974 13.006 4.00216C13.1143 4.08597 13.2369 4.05735 13.3514 4.05735C14.4143 4.0594 15.4772 4.05735 16.5401 4.05735C16.6688 4.05735 16.7956 4.06144 16.957 4.06553L16.9591 4.06348ZM7.96136 7.9982C7.96954 7.85103 7.98384 7.73452 7.98384 7.62006C7.98793 7.11519 7.98589 6.61032 7.98793 6.10749C7.98998 5.51677 7.99202 4.92605 8.0002 4.33738C8.00428 4.10028 8.02881 4.07984 8.2557 4.06348C8.33133 4.05735 8.40491 4.05735 8.48054 4.05735C8.71764 4.05735 8.9527 4.05735 9.18981 4.05735C9.98493 4.05735 10.778 4.06144 11.5731 4.0594C11.6876 4.0594 11.8082 4.07984 11.9329 4.0083C11.941 3.91427 11.9553 3.82025 11.9574 3.72622C11.9615 2.95359 11.9656 2.18095 11.9676 1.40832C11.9676 1.33269 11.9656 1.25706 11.9553 1.18348C11.941 1.07924 11.8961 1.03222 11.7877 1.02405C11.6487 1.01383 11.5098 1.01383 11.3687 1.01383C9.38194 1.01178 7.39721 1.00974 5.41044 1.00974C5.33481 1.00974 5.25918 1.00974 5.1856 1.01587C5.1018 1.022 5.04456 1.07106 5.03639 1.15691C5.02617 1.27342 5.02208 1.39197 5.02208 1.51052C5.02208 3.33582 5.02208 5.15907 5.02208 6.98437C5.02208 7.06 5.02617 7.13358 5.03025 7.20921C5.03434 7.31141 5.07522 7.39317 5.15085 7.46267C5.27554 7.58122 5.40431 7.69568 5.51468 7.8265C5.64346 7.97776 5.79676 8.03703 5.99503 8.03499C6.55304 8.02886 7.11105 8.03499 7.66907 8.03499C7.75287 8.03499 7.83668 8.01864 7.9634 8.00433L7.96136 7.9982ZM8.95679 12.9447C8.83619 13.0183 8.70538 12.9958 8.57865 12.9958C7.54847 12.9958 6.51625 12.9917 5.48607 12.9937C5.34912 12.9937 5.20604 12.9672 5.05478 13.0469C5.04456 13.1184 5.02412 13.2022 5.02412 13.284C5.02412 14.0996 5.02412 14.9151 5.02821 15.7327C5.02821 15.8022 5.05683 15.8738 5.07727 15.9576C5.19786 15.9637 5.30415 15.9719 5.41044 15.9719C7.42992 15.9719 9.44735 15.976 11.4668 15.976C11.5731 15.976 11.6815 15.9719 11.7877 15.9616C11.8981 15.9494 11.9451 15.9044 11.9533 15.8002C11.9615 15.6939 11.9615 15.5855 11.9615 15.4793C11.9615 13.8032 11.9615 12.1291 11.9615 10.453C11.9615 10.3018 11.9513 10.1505 11.9656 10.0013C11.9881 9.7867 11.9042 9.62931 11.7489 9.49236C11.6528 9.40652 11.5568 9.31862 11.475 9.22051C11.3401 9.0529 11.1705 9.00589 10.964 9.00998C10.4264 9.01816 9.8909 9.00998 9.35333 9.01202C9.2777 9.01202 9.20207 9.01407 9.12849 9.02224C9.05695 9.03042 9.00994 9.07743 9.0038 9.14897C8.99563 9.25526 8.99154 9.36359 8.99154 9.46988C8.99154 10.4898 8.99563 11.5098 8.99358 12.5298C8.99358 12.6667 9.01607 12.8077 8.95475 12.9426L8.95679 12.9447ZM12.4664 8.78514C12.5645 8.69929 12.6319 8.64615 12.6912 8.58687C12.822 8.4581 12.9508 8.32933 13.0755 8.19646C13.1777 8.08813 13.3003 8.03499 13.4475 8.03499C13.5333 8.03499 13.6192 8.03499 13.705 8.03499C14.3284 8.03499 14.9498 8.03703 15.5732 8.03499C15.9575 8.03499 15.9698 8.02273 15.9718 7.63641C15.9759 6.89648 15.978 6.1545 15.98 5.41457C15.98 5.30828 15.9698 5.20404 15.9657 5.11002C15.8042 5.0119 15.6509 5.04256 15.5037 5.04256C14.6228 5.04052 13.7439 5.04256 12.8629 5.04256C11.6917 5.04256 10.5225 5.04256 9.35128 5.04461C9.24704 5.04461 9.13462 5.02417 9.03038 5.10593C9.0222 5.13659 9.0038 5.17542 9.0038 5.2163C9.0038 6.09727 9.0038 6.97619 9.0038 7.85716C9.0038 7.89804 9.02424 7.93892 9.03855 7.99206C9.11214 8.00433 9.18368 8.02681 9.25522 8.02886C9.45962 8.03499 9.66402 8.0309 9.86637 8.0309C10.3917 8.0309 10.919 8.03499 11.4443 8.0309C11.6038 8.0309 11.7366 8.06974 11.8491 8.18829C11.9513 8.29867 12.0596 8.40291 12.1679 8.50715C12.2599 8.59505 12.3539 8.67885 12.4704 8.78514H12.4664ZM7.96954 9.03042C7.78762 9.02429 7.65067 9.01407 7.51372 9.01407C6.95571 9.01407 6.3977 9.01611 5.83968 9.01407C5.65776 9.01407 5.47585 8.99567 5.29598 8.9875C5.17129 8.87099 5.04661 8.75243 4.92192 8.63593C4.79111 8.51124 4.67255 8.37429 4.49881 8.27618C4.30668 8.42744 4.14929 8.60322 3.98168 8.76674C3.72822 9.01611 3.73027 9.01816 3.36439 9.01816C2.73075 9.01816 2.09711 9.01407 1.46551 9.01816C1.32856 9.01816 1.18752 8.99567 1.0424 9.06926C1.03218 9.1408 1.00969 9.21234 1.00969 9.28388C1.00969 10.0994 1.00765 10.915 1.00969 11.7306C1.00969 11.9595 1.04649 11.9901 1.26928 12.0024C1.34491 12.0065 1.4185 12.0065 1.49412 12.0065C2.19113 12.0065 2.89018 12.0085 3.58719 12.0106C4.91783 12.0126 6.24848 12.0167 7.57913 12.0167C7.95523 12.0167 7.97976 11.9922 7.9818 11.612C7.98793 10.8721 7.98793 10.1301 7.98998 9.39016C7.98998 9.28592 7.97771 9.17963 7.96749 9.03451L7.96954 9.03042Z" fill="#1A1A1A"/>
<path d="M9.95618 2.14143C9.97662 2.42963 9.98889 2.71375 9.95005 3.01422C9.87442 3.02648 9.8131 3.04283 9.75178 3.04692C9.19785 3.07962 7.30511 3.05714 7.05982 3.01422C6.97806 2.77302 6.98011 2.38262 7.06596 2.0985C7.16611 2.04127 7.28467 2.05149 7.40117 2.05149C8.12884 2.05149 8.85651 2.05353 9.58417 2.05762C9.70068 2.05762 9.82128 2.04331 9.95414 2.14143H9.95618Z" fill="#1A1A1A"/>
<path d="M9.93533 14.9367C9.88014 14.951 9.83926 14.9674 9.79838 14.9674C8.96238 14.9735 8.12638 14.9796 7.29243 14.9837C7.21884 14.9837 7.14526 14.9714 7.08394 14.9653C6.98378 14.8631 7.01035 14.7507 7.00627 14.6485C7.00218 14.5524 7.00422 14.4564 7.00627 14.3582C7.01035 14.254 7.01853 14.1477 7.02671 14.0312C7.09007 14.0149 7.14117 13.9924 7.19023 13.9924C8.04667 13.9883 8.90515 13.9883 9.76159 13.9883C9.81269 13.9883 9.86379 14.0046 9.90671 14.0128C9.98234 14.252 9.99256 14.5647 9.93328 14.9367H9.93533Z" fill="#1A1A1A"/>
<path d="M10.0152 6.07976C10.287 5.99391 10.6897 5.99391 10.9493 6.0818C11.0045 6.29847 11.0127 6.59894 10.9718 6.97708C10.8205 7.0711 10.6447 7.02409 10.4792 7.03022C10.3218 7.03431 10.1623 7.04657 10.0131 7.00774C9.94773 6.72158 9.94977 6.35774 10.0131 6.07976H10.0152Z" fill="#1A1A1A"/>
<path d="M11.9996 7.02053C11.9321 6.68327 11.9587 6.38893 11.9853 6.08437C12.0466 6.06189 12.0957 6.02918 12.1447 6.02918C12.3696 6.02305 12.5944 6.02101 12.8213 6.02714C12.9112 6.02918 12.9623 6.08028 12.9664 6.17022C12.9787 6.43594 12.993 6.70371 12.9521 6.98782C12.6435 7.06958 12.3369 7.02257 12.0016 7.02257L11.9996 7.02053Z" fill="#1A1A1A"/>
<path d="M14.9144 6.99492C14.6405 7.04397 14.2624 7.04193 13.9762 6.98061C13.9231 6.68423 13.9578 6.37967 13.966 6.08329C14.2603 5.99335 14.5792 5.98927 14.896 6.06489C14.9921 6.30404 15.0002 6.72715 14.9144 6.99287V6.99492Z" fill="#1A1A1A"/>
<path d="M6.02309 11.0028C5.96586 10.6635 5.97812 10.3691 6.00469 10.0809C6.27655 9.97669 6.66491 9.96851 6.95924 10.0564C7.0267 10.3078 7.02874 10.7044 6.95924 10.9844C6.65877 11.0396 6.35422 11.011 6.02104 11.0028H6.02309Z" fill="#1A1A1A"/>
<path d="M4.02029 10.0531C4.3739 9.98769 4.67028 9.99382 4.96462 10.0347C4.99119 10.0899 5.02185 10.1267 5.0239 10.1655C5.03412 10.3045 5.03616 10.4435 5.03616 10.5825C5.03616 10.7092 5.04434 10.84 4.99324 10.9668C4.83994 11.0526 4.67642 11.0117 4.51903 11.0158C4.37186 11.0199 4.22265 11.0097 4.06526 11.0056C3.96306 10.6806 4.03051 10.376 4.02029 10.0531Z" fill="#1A1A1A"/>
<path d="M2.04676 11.0003C2.00383 10.661 1.99566 10.3667 2.0488 10.056C2.12852 10.0376 2.20006 10.011 2.2716 10.0069C2.50462 9.99468 2.73968 9.98446 2.96452 10.0253C3.04015 10.2665 3.05037 10.6365 2.99518 10.9676C2.84801 11.0433 2.68653 11.0065 2.52914 11.0106C2.38198 11.0146 2.23276 11.0044 2.0488 10.9983L2.04676 11.0003Z" fill="#1A1A1A"/>
</g>
<defs>
<clipPath id="clip0_2059_1427">
<rect width="17" height="16.9693" fill="white"/>
</clipPath>
</defs>
</svg>
