<svg width="17" height="15" viewBox="0 0 17 15" fill="none" xmlns="http://www.w3.org/2000/svg">
<path d="M8.4573 1.51928C8.81125 1.26647 9.1306 1.04292 9.44462 0.814053C11.9302 -1.01156 15.4085 0.492042 16.4464 2.77273C17.3885 4.84053 17.0798 6.76195 15.8875 8.60886C14.7831 10.32 13.3034 11.6666 11.6907 12.8802C10.6635 13.6519 9.62027 14.4024 8.39077 15.0065C7.45933 14.3678 6.4933 13.7397 5.56452 13.0585C3.90124 11.8396 2.4003 10.4504 1.21604 8.7499C0.356456 7.51242 -0.133214 6.15252 0.0317832 4.62762C0.430971 0.917842 3.91189 -0.596409 6.43475 0.236562C6.97765 0.414866 7.44869 0.808731 7.94634 1.11744C8.12731 1.22921 8.28166 1.3809 8.4573 1.51928ZM8.51319 3.69087C8.3615 3.55514 8.24706 3.45934 8.14327 3.35821C7.78401 3.00692 7.44603 2.63701 7.06813 2.30701C6.63967 1.93444 6.16863 1.61243 5.58847 1.51396C4.01301 1.24784 1.96917 2.26177 1.59128 4.27368C1.3358 5.62825 1.71369 6.8205 2.46683 7.91959C3.9385 10.0646 5.95573 11.6081 8.11932 12.9866C8.44666 13.1969 8.69681 13.141 9.01084 12.944C10.6448 11.9195 12.1378 10.7166 13.4445 9.30344C14.0033 8.69934 14.4824 8.01007 14.9135 7.3075C15.6453 6.11526 15.6746 4.85915 15.1823 3.5445C14.658 2.15 12.3667 0.843327 10.6315 1.83597C10.2031 2.08081 9.83583 2.43476 9.46059 2.76475C9.13592 3.0495 8.84318 3.36619 8.51585 3.69353L8.51319 3.69087Z" fill="#1A1A1A"/>
</svg>
